<?xml version="1.0" ?><svg class="injected-svg" id="svg-6e81bd75-212b-40d5-ad66-281dcfea191a" height="100%" width="100%" viewBox="0 0 540 508" xmlns="http://www.w3.org/2000/svg"><g xmlns="http://www.w3.org/2000/svg" fill="#e9d15c" id="shape-svg"><title>forma</title><g id="Слой_2" data-name="Слой 2"><g id="Слой_1-2" data-name="Слой 1"><path transform="translate(139, 78) scale(1,1)" d="M129,259.27c.63-.32,1.3-.5,1.91-.77a3.17,3.17,0,0,0,1.48-1.18c.34-.55.56-1.2.88-1.83a4.35,4.35,0,0,1,.59-.92,5.59,5.59,0,0,1,.81-.74,7.77,7.77,0,0,0,1.47-1.28,4.87,4.87,0,0,0,.68-1.74,5.18,5.18,0,0,1,.86-2.05,17.42,17.42,0,0,1,1.49-1.49,4.06,4.06,0,0,0,.58-.7,2.56,2.56,0,0,0,.31-.79,18,18,0,0,1,.48-2.06,2.92,2.92,0,0,1,.66-1.06,7,7,0,0,1,.87-.73,6.19,6.19,0,0,0,1.4-1.19l1.28-1.63a17.85,17.85,0,0,0,1.18-1.57c.3-.52.55-1.18,1-1.83a5.52,5.52,0,0,1,1.73-1.59c.61-.39,1.19-.7,1.67-1.07a9,9,0,0,0,1.24-1.4,5.85,5.85,0,0,1,.82-.84,4.27,4.27,0,0,1,.54-.37c.17-.09.34-.18.52-.26a16.4,16.4,0,0,1,2-.72l1-.33a4.89,4.89,0,0,1,1.21-.19c.76,0,1.42,0,2-.05,1.11-.09,2.45-.87,4.23-.69a13.63,13.63,0,0,1,2.11.61,5.77,5.77,0,0,0,.85.2l1,.2,2.07.4a10.37,10.37,0,0,0,1.89.28c.34,0,.7.06,1.09.12a7.9,7.9,0,0,1,1.1.29c.6.19,1.25.32,1.95.5a8.35,8.35,0,0,1,1.08.34l1,.43c.63.28,1.27.57,1.91.91a7.46,7.46,0,0,1,1,.62,5.34,5.34,0,0,1,.84.88c.47.6.8,1.21,1.16,1.64.8.9,2.09,1.88,2.62,3.44a9.85,9.85,0,0,1,.27,4.36,8.44,8.44,0,0,1-.54,2.13,17.8,17.8,0,0,1-1,1.9A9.75,9.75,0,0,1,183,249.2a13.17,13.17,0,0,1-1.57,1.43,18.33,18.33,0,0,1-1.72,1.23,16.39,16.39,0,0,1-1.88.93,9.69,9.69,0,0,1-2,.73c-.7.15-1.4.21-2.05.31a3.44,3.44,0,0,1-3.17-.67,7.5,7.5,0,0,0-.81-.58,5.41,5.41,0,0,1-1.66-1.39,3.52,3.52,0,0,1-.51-2.15,17,17,0,0,0,0-2c-.07-.64-.28-1.29-.41-2a5.36,5.36,0,0,1,0-2.15c.13-.7.36-1.35.53-2,.31-1.28.44-2.68.9-4a7.56,7.56,0,0,1,1.08-1.84,7.47,7.47,0,0,0,1-1.72,17.4,17.4,0,0,1,.83-1.92,8.21,8.21,0,0,1,1.3-1.71l1.47-1.46a12.09,12.09,0,0,1,1.67-1.32,20.08,20.08,0,0,0,1.64-1.17,10.22,10.22,0,0,1,1.77-1.22,21.48,21.48,0,0,1,4-1.1c.55-.21,1.14-.58,1.87-.85a3.66,3.66,0,0,1,1.21-.23,3.84,3.84,0,0,1,1.21.19c.73.22,1.35.52,1.87.61a5.77,5.77,0,0,0,1.78-.15c.34-.06.69-.12,1.08-.16a4,4,0,0,1,1.17.06l2.06.34,1,.18,1,.16a20,20,0,0,1,2.11.34,4.25,4.25,0,0,1,1.17.46,7.39,7.39,0,0,1,.94.69,5.29,5.29,0,0,0,1.44,1,18.73,18.73,0,0,0,1.89.52,4.14,4.14,0,0,1,1.18.52,4.75,4.75,0,0,1,.95.88,16.11,16.11,0,0,1,1.14,1.83l.25.35.31.4c.21.27.43.54.64.85a5.82,5.82,0,0,1,.62,1.05,3.44,3.44,0,0,1,.27,1.36,3.17,3.17,0,0,1-.28,1.41,2.93,2.93,0,0,1-1,1.14,3.81,3.81,0,0,1-.58.34,3.52,3.52,0,0,1-.66.25,2.53,2.53,0,0,1-1.59-.12,5.93,5.93,0,0,1-1.93-1.42c-.42-.4-1-.81-1.57-1.36a6,6,0,0,1-1.35-2c-.3-.69-.52-1.36-.75-2l-.17-.45c-.06-.16-.14-.39-.2-.57a9,9,0,0,1-.24-1.14c-.12-.72-.18-1.35-.33-1.93s-.33-1.36-.45-2.08c0-.36-.1-.73-.13-1.1s0-.61-.1-.95a12.53,12.53,0,0,1-.23-2.22,4,4,0,0,1,.26-1.34,4.65,4.65,0,0,1,.65-1.14c.48-.64,1-1.12,1.31-1.55s.62-1.1,1.17-1.77a3.73,3.73,0,0,1,1.08-.9,2.21,2.21,0,0,1,.35-.16l.26-.1.51-.17c.68-.23,1.37-.42,2.06-.58a10,10,0,0,1,2.2-.33c.72,0,1.39,0,2-.1a10.89,10.89,0,0,1,2.25.08,7.43,7.43,0,0,0,1.82,0c.61-.07,1.27-.23,2-.32a7.39,7.39,0,0,1,2.31.08,12.18,12.18,0,0,0,1.88.26c.69,0,1.43,0,2.08.07a6.14,6.14,0,0,0,1.73-.07,11.22,11.22,0,0,0,1.68-.86,4.45,4.45,0,0,1,1.18-.44l1-.19a7.25,7.25,0,0,0,1.76-.47,5.36,5.36,0,0,0,1.44-1c.47-.44.82-.92,1.4-1.49a12.24,12.24,0,0,0,1.35-1.36,3.35,3.35,0,0,0,.39-.73l.36-.94a12.28,12.28,0,0,0,.54-1.84,9.25,9.25,0,0,0-.09-3.78,7,7,0,0,0-1.74-3.28,8.57,8.57,0,0,0-1.56-1.11l-.87-.45a3.12,3.12,0,0,0-.85-.25,17.51,17.51,0,0,0-2-.15c-.71,0-1.38-.14-2-.16a4.55,4.55,0,0,0-1.87.27,7.84,7.84,0,0,0-1.77.86,5.39,5.39,0,0,0-2.16,3.17,10.84,10.84,0,0,0-.62,4l-.19,0a11,11,0,0,1,.42-4.11,8.15,8.15,0,0,1,.75-2,5,5,0,0,1,1.44-1.6,9.16,9.16,0,0,1,1.86-1,5.3,5.3,0,0,1,2.14-.42c.72,0,1.41.05,2.07.07a16.94,16.94,0,0,1,2.1.08,4.21,4.21,0,0,1,1.12.29c.35.15.64.3,1,.46a9.54,9.54,0,0,1,1.82,1.2,8.26,8.26,0,0,1,2.22,3.79,10.7,10.7,0,0,1,.26,4.36,11.76,11.76,0,0,1-.55,2.1l-.35,1a4.65,4.65,0,0,1-.56,1.08,11.64,11.64,0,0,1-1.49,1.59c-.39.39-.84,1-1.36,1.53a6.88,6.88,0,0,1-1.86,1.38,8.45,8.45,0,0,1-2.17.65l-1,.21a2.41,2.41,0,0,0-.73.29,11.5,11.5,0,0,1-1.95,1,3.56,3.56,0,0,1-.68.15c-.23,0-.39,0-.58.05h-1.09c-.71,0-1.34,0-2,0a13.44,13.44,0,0,1-2.19-.24,5.9,5.9,0,0,0-1.77,0c-.61.08-1.28.24-2,.34a9.55,9.55,0,0,1-2.27,0,9.09,9.09,0,0,0-1.84-.07c-.76.08-1.46.08-2.1.11a8.58,8.58,0,0,0-1.84.29q-1,.24-1.89.54l-.46.16-.21.08s-.09,0-.12.06a1.72,1.72,0,0,0-.47.41c-.33.39-.61,1-1.08,1.66s-1,1.13-1.32,1.59a2.07,2.07,0,0,0-.49,1.3,10.78,10.78,0,0,0,.21,1.85c.06.33.1.79.12,1.09s.07.62.12.93c.11.63.25,1.27.41,1.93s.24,1.49.33,2.11a6.82,6.82,0,0,0,.18.88c0,.14.07.23.13.39l.19.51c.24.67.44,1.31.67,1.87a4,4,0,0,0,.91,1.39c.41.42.94.8,1.52,1.34a4.73,4.73,0,0,0,1.29,1.06.63.63,0,0,0,.42,0,1.26,1.26,0,0,0,.3-.11,2.14,2.14,0,0,0,.3-.17,1.07,1.07,0,0,0,.47-1,1.46,1.46,0,0,0-.12-.64,4.59,4.59,0,0,0-.41-.72l-.58-.78-.32-.42c-.11-.14-.24-.33-.34-.49a13.88,13.88,0,0,0-1-1.66,2.45,2.45,0,0,0-.54-.53,2.58,2.58,0,0,0-.68-.3,16.64,16.64,0,0,1-2.05-.62,6.64,6.64,0,0,1-1.87-1.35,4.45,4.45,0,0,0-.7-.53,2.43,2.43,0,0,0-.73-.31c-.58-.15-1.23-.24-1.92-.35-.35,0-.7-.11-1.06-.19l-1-.19-2-.38a3,3,0,0,0-.87-.07c-.29,0-.61.07-1,.12a6.57,6.57,0,0,1-2.29.08,16.52,16.52,0,0,1-2-.72,2.32,2.32,0,0,0-1.6,0c-.57.18-1.16.53-1.89.78a2.91,2.91,0,0,1-.58.15l-.51.09-1,.17a7.86,7.86,0,0,0-1.82.52,9.62,9.62,0,0,0-1.63,1.06,20.24,20.24,0,0,1-1.73,1.17,11.15,11.15,0,0,0-1.58,1.17l-1.48,1.4a7.23,7.23,0,0,0-1.22,1.5,16.12,16.12,0,0,0-.84,1.82,8,8,0,0,1-1.06,1.84,7.37,7.37,0,0,0-1,1.67c-.44,1.24-.58,2.59-.92,4-.19.67-.41,1.31-.54,1.95a4.77,4.77,0,0,0,0,1.92c.12.66.31,1.32.4,2a18.22,18.22,0,0,1,0,2.08,2.87,2.87,0,0,0,.42,1.77A4.82,4.82,0,0,0,170.2,252a7.86,7.86,0,0,1,.87.6,3.64,3.64,0,0,0,.8.47,3.23,3.23,0,0,0,1.83,0c.69-.12,1.36-.19,2-.33a8.17,8.17,0,0,0,1.83-.72,15.31,15.31,0,0,0,1.75-.94,16.28,16.28,0,0,0,1.58-1.22,9.72,9.72,0,0,0,2.49-3,17.86,17.86,0,0,0,.84-1.78,7.52,7.52,0,0,0,.39-1.85,8.56,8.56,0,0,0-.33-3.74c-.39-1.09-1.41-1.85-2.46-2.91-.54-.61-.87-1.2-1.26-1.66a3.88,3.88,0,0,0-1.36-1c-.56-.3-1.18-.57-1.8-.84l-.91-.39a7,7,0,0,0-.88-.27c-.62-.16-1.32-.29-2-.5a5.63,5.63,0,0,0-.88-.22c-.29-.05-.61-.07-.95-.1s-.7-.05-1.07-.1-.8-.16-1.1-.2l-2-.36-1-.18a7.18,7.18,0,0,1-1.13-.28,11.75,11.75,0,0,0-1.82-.57,4.56,4.56,0,0,0-1.69.18,16.08,16.08,0,0,1-2.12.47c-.79.07-1.49,0-2.1,0a3.24,3.24,0,0,0-.81.11l-1,.31a16,16,0,0,0-1.85.63c-.14.06-.27.13-.4.2a2,2,0,0,0-.31.2,5.14,5.14,0,0,0-.61.62,9.72,9.72,0,0,1-1.52,1.62c-.62.46-1.25.78-1.79,1.13a3.83,3.83,0,0,0-1.3,1.13c-.33.48-.6,1.1-1,1.74a6.16,6.16,0,0,1-.68.91l-.65.77-1.31,1.55a7,7,0,0,1-1.73,1.43,2.73,2.73,0,0,0-1.16,1.21,18.73,18.73,0,0,0-.5,1.92,3.71,3.71,0,0,1-.48,1.09,5.23,5.23,0,0,1-.76.85,19.75,19.75,0,0,0-1.45,1.36,4.93,4.93,0,0,0-.78,1.68,5.34,5.34,0,0,1-.92,2,8.77,8.77,0,0,1-1.67,1.34,3.59,3.59,0,0,0-1.3,1.38c-.33.57-.58,1.21-1,1.81a3.48,3.48,0,0,1-1.75,1.24c-.65.24-1.33.37-1.94.64Z"></path><path transform="translate(139, 78) scale(1,1)" d="M243.13,197a10.45,10.45,0,0,0-.44-4c-.25-.62-.59-1.21-.91-1.83a16.26,16.26,0,0,1-.83-1.93,18.35,18.35,0,0,0-.78-1.87A7.22,7.22,0,0,0,239,185.8a6.19,6.19,0,0,1-1.23-1.83c-.28-.7-.42-1.38-.63-2a3.75,3.75,0,0,0-.94-1.55,11.88,11.88,0,0,1-1.43-1.63c-.4-.69-.64-1.26-1-1.9l-.91-1.84-1-1.8a7,7,0,0,1-.46-1,5.38,5.38,0,0,1-.27-1.14c-.11-.73-.13-1.42-.25-2,0-.25-.17-.67-.22-1s-.12-.72-.16-1.07c-.08-.71-.14-1.35-.25-2s-.17-1.39-.21-2.11c0-.35,0-.75,0-1.07s0-.62-.06-1a9.51,9.51,0,0,1-.07-2.23,3.49,3.49,0,0,1,.39-1.26,7.76,7.76,0,0,1,.62-1,4.48,4.48,0,0,0,.85-1.53c.15-.55.19-1.25.39-2a4.37,4.37,0,0,1,.46-1.17c.18-.32.36-.62.56-.92q.59-.9,1.23-1.74a6.28,6.28,0,0,0,.53-.77l.49-.87a6.6,6.6,0,0,1,1.43-1.89,9.87,9.87,0,0,1,1.93-1.15,4.63,4.63,0,0,0,1.43-1.07c.46-.47.9-1,1.47-1.52,1.17-1.13,2.78-1.51,3.83-2a16,16,0,0,1,4-1.54,16.2,16.2,0,0,1,2.1-.5,4.9,4.9,0,0,1,1.21,0c.35,0,.71.09,1.06.15a7.94,7.94,0,0,1,2.15.66,4.86,4.86,0,0,1,1.78,1.5c.46.58.82,1.19,1.19,1.75a10.14,10.14,0,0,1,1,1.94c.27.66.47,1.35.69,2s.45,1.31.62,2a12.38,12.38,0,0,1,.26,2.13,16.66,16.66,0,0,1,0,2.12,13.54,13.54,0,0,1-1.21,4,7.38,7.38,0,0,1-1,1.92,2.61,2.61,0,0,1-2,1.1,9,9,0,0,1-2.11-.43c-.34-.09-.62-.15-1-.22a5.09,5.09,0,0,1-1-.35c-.65-.28-1.25-.62-1.86-.89s-1.27-.41-1.94-.65a5.71,5.71,0,0,1-1-.43l-.89-.54a19.92,19.92,0,0,1-1.79-1.09c-.6-.45-1.06-.86-1.64-1.27a10,10,0,0,1-1.61-1.4,12.88,12.88,0,0,1-1.18-1.76l-.53-.88a3.94,3.94,0,0,1-.51-1c-.25-.71-.33-1.41-.52-2a4.39,4.39,0,0,0-1-1.64,5.35,5.35,0,0,1-1.11-1.93,14.24,14.24,0,0,1-.37-2.1c-.08-.71-.1-1.39-.22-2a14.15,14.15,0,0,1-.33-2.11,5.64,5.64,0,0,1,.42-2.23c.25-.67.53-1.29.72-1.9s.45-1.34.72-2,.63-1.31.91-1.89.57-1.24.91-1.89a8.6,8.6,0,0,1,1.27-1.82c.48-.55.91-1,1.31-1.54a7.36,7.36,0,0,1,1.74-1.47,5.68,5.68,0,0,0,.71-.56,2.22,2.22,0,0,0,.44-.63c.27-.51.42-1.17.83-1.93a2.91,2.91,0,0,1,.92-1,5.12,5.12,0,0,1,1.06-.59,13.86,13.86,0,0,0,1.76-.76,11.81,11.81,0,0,0,1.39-1.28,6.13,6.13,0,0,1,.92-.77,3.46,3.46,0,0,1,1.27-.51,8.82,8.82,0,0,1,2.29,0c.15,0,.3,0,.43,0h.18l.25,0c.36,0,.72-.08,1.1-.1a5.2,5.2,0,0,1,2.44.39,6.16,6.16,0,0,1,2,1.33,2.81,2.81,0,0,1,.73,1.38,2.5,2.5,0,0,1,0,.9,1.84,1.84,0,0,1-.58.94,3.24,3.24,0,0,1-1.31.62c-.39.11-.74.18-1.07.25s-.66.13-1,.21-.72.18-1.09.24a13.63,13.63,0,0,1-2.2.2,20.87,20.87,0,0,1-4.3-.23,18.81,18.81,0,0,1-4.21-1.1c-.67-.27-1.34-.6-1.93-.89s-1.13-.4-1.86-.68a5,5,0,0,1-1.16-.6l-.27-.23-.18-.15-.39-.32a10.3,10.3,0,0,1-1.65-1.61,3.41,3.41,0,0,1-.64-1.31,3.72,3.72,0,0,1,0-1.41c.14-.81.38-1.46.5-2a10.44,10.44,0,0,0,.11-1.87,8.16,8.16,0,0,1,.1-1.17,3.71,3.71,0,0,1,.15-.64l.15-.48c.19-.64.36-1.32.6-2a7.18,7.18,0,0,1,.42-1l.47-.93,1-1.88.13-.24a2.14,2.14,0,0,1,.2-.32,5.66,5.66,0,0,1,.43-.52c.31-.3.61-.53.87-.75a3,3,0,0,0,1.06-1.11,9.21,9.21,0,0,0,.31-1.81,4.16,4.16,0,0,1,.35-1.25,6.69,6.69,0,0,1,.62-1c.42-.6.84-1.12,1.14-1.63.08-.14.13-.24.21-.4s.18-.35.28-.51c.19-.32.39-.62.58-.91a5.38,5.38,0,0,0,.8-1.56,5.16,5.16,0,0,0,0-1.76c0-.35-.07-.72-.07-1.12l0-1a6.77,6.77,0,0,0-.18-1.83c-.07-.26-.2-.61-.31-.94s-.21-.63-.33-.93a5.31,5.31,0,0,0-.92-1.56A10.92,10.92,0,0,0,247,76.58l-.8-.63a5.17,5.17,0,0,0-.78-.54,8.34,8.34,0,0,0-1.74-.79,7.19,7.19,0,0,0-3.71-.54,5.53,5.53,0,0,0-1.69.8l-.86.56c-.27.19-.54.38-.79.58a9.19,9.19,0,0,0-2.41,3.07,7,7,0,0,0-.61,1.86,10.18,10.18,0,0,0-.34,2,3.27,3.27,0,0,0,.1.94,8.07,8.07,0,0,0,.33.94,7.09,7.09,0,0,0,1,1.73c.76,1.11,2.24,1.34,3.47,2l-.08.18c-.63-.27-1.29-.45-1.94-.7a3.9,3.9,0,0,1-1.77-1.18A7.43,7.43,0,0,1,233.18,85a8.53,8.53,0,0,1-.4-1,3.78,3.78,0,0,1-.18-1.1,10.25,10.25,0,0,1,.24-2.11,8.19,8.19,0,0,1,.57-2.07,9.67,9.67,0,0,1,2.53-3.49,10.74,10.74,0,0,1,.85-.66l.84-.61a6.6,6.6,0,0,1,2-1,5.44,5.44,0,0,1,2.3-.08,17.69,17.69,0,0,1,2.09.5,10.16,10.16,0,0,1,2,.83,9.43,9.43,0,0,1,.94.61l.84.62a11.3,11.3,0,0,1,1.63,1.48,6.83,6.83,0,0,1,1.21,1.95c.15.34.27.68.39,1s.23.62.35,1a8.14,8.14,0,0,1,.28,2.26v1a8.52,8.52,0,0,0,.08.94,7,7,0,0,1,0,2.34,7.15,7.15,0,0,1-1,2.13q-.28.44-.51.84a4,4,0,0,0-.21.41c-.07.15-.17.35-.26.51-.76,1.36-1.81,2.29-1.8,3.27a9.73,9.73,0,0,1-.38,2.25,3.55,3.55,0,0,1-.77,1.19,9.24,9.24,0,0,1-.87.76,7.62,7.62,0,0,0-.69.6,1.84,1.84,0,0,0-.23.27.75.75,0,0,0-.07.12l-.11.21-.92,1.81-.45.9a7.18,7.18,0,0,0-.35.87c-.2.61-.36,1.26-.57,1.95l-.15.51a3.21,3.21,0,0,0-.08.36,6.06,6.06,0,0,0-.07.89,11.36,11.36,0,0,1-.15,2.24c-.15.76-.38,1.42-.47,2a1.24,1.24,0,0,0,.28,1.17,8,8,0,0,0,1.32,1.24l.41.34.21.18.12.1a3.07,3.07,0,0,0,.68.34c.55.21,1.26.38,2,.73s1.22.59,1.82.84a18.89,18.89,0,0,0,3.76,1,19.44,19.44,0,0,0,3.93.25,11.88,11.88,0,0,0,1.9-.15c.32,0,.62-.11.93-.19s.73-.16,1.07-.23.66-.12.94-.2a1.82,1.82,0,0,0,.56-.21.23.23,0,0,0,0,.09.54.54,0,0,0,0-.13.86.86,0,0,0-.23-.41,4.35,4.35,0,0,0-1.41-.91,3.29,3.29,0,0,0-1.59-.25c-.31,0-.63,0-1,.08l-.26,0-.34,0-.6,0a7.67,7.67,0,0,0-1.83,0c-.87,0-1.58,1.32-3,2.25a12.09,12.09,0,0,1-2,.86,4.36,4.36,0,0,0-.75.39,1.32,1.32,0,0,0-.45.49c-.27.45-.46,1.14-.84,1.85a3.8,3.8,0,0,1-.77,1,8.64,8.64,0,0,1-.92.7,6.62,6.62,0,0,0-1.44,1.13c-.43.57-1,1.1-1.4,1.58a7.23,7.23,0,0,0-1.13,1.52c-.33.56-.62,1.18-.95,1.8s-.67,1.2-.93,1.81-.52,1.23-.74,1.87c-.49,1.37-1.25,2.53-1.22,3.71a14.84,14.84,0,0,0,.26,2c.12.73.11,1.44.17,2.1a12.81,12.81,0,0,0,.29,2,4.54,4.54,0,0,0,.91,1.63,5.33,5.33,0,0,1,1,1.94c.2.71.25,1.4.46,2a2.91,2.91,0,0,0,.43.84l.53.9a12.31,12.31,0,0,0,1.09,1.67,9.55,9.55,0,0,0,1.49,1.32c.54.38,1.12.89,1.61,1.27a19.54,19.54,0,0,0,1.73,1.08,8.84,8.84,0,0,0,1.76.94c.63.22,1.31.38,2,.67s1.25.61,1.87.87a4.46,4.46,0,0,0,.92.29c.31.06.7.13,1,.22a8.39,8.39,0,0,0,1.93.37,1.88,1.88,0,0,0,1.45-.85,6.06,6.06,0,0,0,.88-1.74,12,12,0,0,0,1.09-3.84,15.1,15.1,0,0,0-.06-2,11.86,11.86,0,0,0-.31-1.95c-.17-.63-.42-1.26-.66-1.91s-.46-1.29-.73-1.9a9.06,9.06,0,0,0-1-1.7c-.41-.57-.78-1.14-1.19-1.63a3.75,3.75,0,0,0-1.37-1.1,6.87,6.87,0,0,0-1.81-.47c-.32-.05-.65-.08-1-.11a3.05,3.05,0,0,0-.85,0,16.58,16.58,0,0,0-1.9.52,16.26,16.26,0,0,0-3.66,1.54c-1.41.67-2.6,1-3.43,1.8-.45.42-.89.94-1.39,1.46a9.32,9.32,0,0,1-.84.79,8.16,8.16,0,0,1-1,.63,8.34,8.34,0,0,0-1.61,1,4.7,4.7,0,0,0-1,1.41c-.16.29-.32.6-.52.93a9.15,9.15,0,0,1-.65.92c-.42.53-.81,1.07-1.18,1.62-.18.27-.36.55-.53.83a3.57,3.57,0,0,0-.29.74c-.16.56-.2,1.25-.42,2a6.05,6.05,0,0,1-1.13,2,3.06,3.06,0,0,0-.74,1.46,9.33,9.33,0,0,0,.05,1.88c0,.35.06.72.06,1.11s0,.66,0,1a19.8,19.8,0,0,0,.18,2c.09.67.15,1.41.22,2.06,0,.34.07.66.13,1s.12.57.21,1c.14.77.13,1.47.2,2.1.07,1.17.86,2.26,1.48,3.57l.86,1.89c.28.6.58,1.3.84,1.82a11.94,11.94,0,0,0,1.26,1.5,4.75,4.75,0,0,1,1.11,2c.21.7.33,1.37.54,2a6,6,0,0,0,1,1.62,8,8,0,0,1,1.19,1.8c.28.66.5,1.33.71,2a16.49,16.49,0,0,0,.7,1.9c.28.62.6,1.24.83,1.92a10.34,10.34,0,0,1,.21,4.17Z"></path><path transform="translate(139, 78) scale(1,1)" d="M245.29,67.36c-1.15-.7-2.62-.4-3.95-1.1-.62-.34-1.17-.76-1.75-1a5.87,5.87,0,0,0-1.92-.27c-1.36,0-2.75-.08-4.1-.16-.67,0-1.38-.11-2-.07s-1.33.12-2,.16c-1.45,0-2.77,0-4.16,0a15.09,15.09,0,0,0-2,.1c-.34,0-.71,0-1.08,0a7,7,0,0,1-1.08-.11c-1.37-.2-2.75-.33-4.12-.62l-2-.4a3.6,3.6,0,0,1-1.14-.46,8.49,8.49,0,0,1-.91-.63c-.28-.21-.54-.4-.78-.55a3.3,3.3,0,0,0-.78-.36c-.6-.2-1.27-.36-2-.62a5.25,5.25,0,0,1-2-1.27c-.54-.53-1-1.06-1.4-1.47a6.56,6.56,0,0,0-1.56-1,7.17,7.17,0,0,1-1-.61,4,4,0,0,1-.86-.93c-.9-1.31-1.28-2.54-2.06-3.56a14.79,14.79,0,0,1-1.14-1.86,10.41,10.41,0,0,1-.71-2.1l-1-4-.25-1a5.61,5.61,0,0,1-.13-1.18c0-.78.12-1.48.14-2.08a5.14,5.14,0,0,0-.28-1.75,7.7,7.7,0,0,1-.48-2.23,5.57,5.57,0,0,1,.61-2.3c.15-.32.31-.62.42-.9a6.2,6.2,0,0,0,.28-.86,21.09,21.09,0,0,1,.53-2.07,4.13,4.13,0,0,1,.59-1.09,5.7,5.7,0,0,1,.78-.85A9,9,0,0,1,201.81,27c.62-.3,1.12-.64,1.77-1a4.69,4.69,0,0,1,2.2-.7,10.85,10.85,0,0,1,2.16.19A14.35,14.35,0,0,1,210,26a15.15,15.15,0,0,1,1.89,1c.56.32,1.22.58,1.83,1a17.53,17.53,0,0,1,1.74,1.16,14.63,14.63,0,0,1,3.06,2.87,6.46,6.46,0,0,1,1.19,1.81,2.34,2.34,0,0,1,.14,1.18,5.18,5.18,0,0,1-.3,1.06,8.07,8.07,0,0,1-1,1.86A6.23,6.23,0,0,1,217,39.36l-1.7,1.17a8.56,8.56,0,0,1-1.92.9,7.7,7.7,0,0,0-1.77.88,18,18,0,0,1-1.73,1.16,18.93,18.93,0,0,1-4,1.13c-1.48.25-2.86-.2-4.06.15-.63.16-1.28.43-2,.55a6.69,6.69,0,0,1-2.17-.2c-.69-.15-1.35-.33-2-.5a5.21,5.21,0,0,1-1.91-1.15,3.75,3.75,0,0,0-1.58-.88c-.6-.14-1.3-.15-2.06-.37a3,3,0,0,1-1.08-.57c-.28-.21-.55-.44-.82-.67a18.61,18.61,0,0,1-4-4.89c-.36-.62-.68-1.24-1-1.85l-.48-.91a6.25,6.25,0,0,1-.41-1.08c-.2-.72-.31-1.39-.52-1.93-.08-.22-.27-.64-.38-.95s-.24-.67-.34-1c-.22-.66-.4-1.32-.63-1.9s-.53-1.21-.8-1.91a10.42,10.42,0,0,1-.31-1.07,8.57,8.57,0,0,0-.28-.91,10.75,10.75,0,0,1-.6-2.14,16.28,16.28,0,0,1-.07-2.19c0-.35,0-.71.06-1.07l.05-.53a3.5,3.5,0,0,1,.12-.63,7.89,7.89,0,0,1,1-2.08,5.08,5.08,0,0,0,.41-.8l.38-.95a6.24,6.24,0,0,1,1.22-2.09,3.36,3.36,0,0,1,1.22-.75,3.15,3.15,0,0,1,1.46-.14,3.67,3.67,0,0,1,1.3.47,4.27,4.27,0,0,1,1,.84,3.78,3.78,0,0,1,.92,2.53,4.63,4.63,0,0,1-.19,1.27c-.09.36-.21.7-.33,1.05a14.25,14.25,0,0,1-.88,2,4,4,0,0,1-.73,1.06,8.39,8.39,0,0,1-.85.78,6,6,0,0,0-1.24,1.22c-.29.42-.51,1.05-.87,1.74a4.79,4.79,0,0,1-.72,1.07,5.23,5.23,0,0,1-1,.82c-.66.43-1.32.71-1.86,1l-.38.22-.52.32a8.45,8.45,0,0,1-1.12.45c-.74.23-1.37.35-2,.56a7.61,7.61,0,0,1-2.31.39,9.11,9.11,0,0,1-1.18-.08,7.63,7.63,0,0,0-.89,0,5.29,5.29,0,0,1-2.47-.46,5.29,5.29,0,0,1-1.77-1.81,10.79,10.79,0,0,0-1.11-1.54c-.45-.5-.93-1-1.39-1.55a18.49,18.49,0,0,1-1.3-1.72l-1.2-1.71-.3-.44q-.16-.27-.3-.54c-.17-.36-.3-.71-.42-1a8.89,8.89,0,0,0-.74-1.72l-1-1.77c-.66-1.21-1.46-2.26-2.2-3.4a25.54,25.54,0,0,0-2.35-3.13,5.28,5.28,0,0,0-1.5-.92c-.31-.15-.64-.3-1-.49a7.74,7.74,0,0,1-.94-.65,7.42,7.42,0,0,0-1.52-1,3.59,3.59,0,0,0-1.66-.19c-.63,0-1.3.14-2,.24a5.76,5.76,0,0,0-1.72.59c-.57.3-1.33.61-1.87.85a8.3,8.3,0,0,0-1.6,1A6.33,6.33,0,0,0,138,8.53a5.71,5.71,0,0,0-.32,1.85,8.55,8.55,0,0,0,0,1,7.65,7.65,0,0,1-.09,1.1,5.36,5.36,0,0,0-.07,1.85,4.87,4.87,0,0,0,.38.83c.16.28.33.56.52.83a8.17,8.17,0,0,0,1.28,1.46,4.54,4.54,0,0,0,1.72.79,14.32,14.32,0,0,0,2,.42,7,7,0,0,0,2-.2c1.31-.39,2.74-.42,3.86-1.2l.11.16c-1.15.88-2.6,1-3.87,1.43a6.87,6.87,0,0,1-2.09.33,15.3,15.3,0,0,1-2.08-.34,5.08,5.08,0,0,1-2-.82,8.35,8.35,0,0,1-1.5-1.53c-.22-.29-.43-.58-.62-.88a4.49,4.49,0,0,1-.5-1,6,6,0,0,1,0-2.22,6.12,6.12,0,0,0,0-.94c0-.31-.06-.7-.06-1.05a7.07,7.07,0,0,1,.31-2.19,8.27,8.27,0,0,1,.9-2,7.82,7.82,0,0,1,1.46-1.67,9.12,9.12,0,0,1,1.83-1.25c.7-.34,1.19-.56,1.83-.92A7,7,0,0,1,145,1.54c.68-.12,1.36-.24,2.1-.3a5.28,5.28,0,0,1,2.38.25,8.89,8.89,0,0,1,1.9,1.21,6.6,6.6,0,0,0,1.63.91,6.85,6.85,0,0,1,2,1.2,27.34,27.34,0,0,1,2.66,3.36c.78,1.14,1.66,2.25,2.34,3.44l1.08,1.75a10.32,10.32,0,0,1,.92,2c.11.31.23.6.35.86a3.07,3.07,0,0,0,.2.36l.28.4L164,18.65a16.31,16.31,0,0,0,1.18,1.56c.43.49.89,1,1.36,1.5a12.53,12.53,0,0,1,1.31,1.77,3.52,3.52,0,0,0,1,1.13,3.48,3.48,0,0,0,1.54.22,8,8,0,0,1,1.15.06,5.2,5.2,0,0,0,.87.05,5.87,5.87,0,0,0,1.72-.3c.68-.24,1.41-.39,2-.57a5.07,5.07,0,0,0,.78-.32l.35-.21a5.51,5.51,0,0,1,.5-.3c.66-.37,1.26-.64,1.74-1a2.58,2.58,0,0,0,1-1.1,18.92,18.92,0,0,1,1-1.92,8,8,0,0,1,1.67-1.64,7,7,0,0,0,.67-.6,2.18,2.18,0,0,0,.43-.62,14.44,14.44,0,0,0,.79-1.74c.11-.3.21-.6.29-.91a2.32,2.32,0,0,0,.13-.75,1.81,1.81,0,0,0-.42-1.24,2.29,2.29,0,0,0-.55-.45,1.68,1.68,0,0,0-.61-.24,1.31,1.31,0,0,0-1.09.36,4.56,4.56,0,0,0-.81,1.44l-.39,1a7.57,7.57,0,0,1-.54,1,6.11,6.11,0,0,0-.8,1.6,2.12,2.12,0,0,0-.08.38l-.05.48c0,.33,0,.65-.07,1a15.09,15.09,0,0,0,0,1.91,9,9,0,0,0,.49,1.81c.11.34.21.69.3,1.07a5.63,5.63,0,0,0,.23.9c.21.58.5,1.21.75,1.89s.42,1.37.61,2c.1.32.2.64.3.94s.22.55.37,1c.26.75.34,1.44.51,2a4.6,4.6,0,0,0,.28.84l.45.93c.29.62.57,1.23.88,1.81a19.83,19.83,0,0,0,2.24,3.26,18.77,18.77,0,0,0,1.38,1.44l.74.65a2,2,0,0,0,.72.41c.55.19,1.24.22,2,.41a4.75,4.75,0,0,1,1.95,1.12,4.48,4.48,0,0,0,1.54,1c.66.19,1.31.39,2,.55a5.75,5.75,0,0,0,1.88.24,17.23,17.23,0,0,0,2-.48c1.48-.37,2.88.11,4.12-.11a19.9,19.9,0,0,0,3.86-1,15.67,15.67,0,0,0,1.68-1.11,8.39,8.39,0,0,1,1.91-.92A7.53,7.53,0,0,0,215,40l1.66-1.19A5.44,5.44,0,0,0,218,37.47a7.81,7.81,0,0,0,.93-1.73,4.41,4.41,0,0,0,.25-.91,1.73,1.73,0,0,0-.12-.83A5.85,5.85,0,0,0,218,32.42a13.44,13.44,0,0,0-3-2.68,19.28,19.28,0,0,0-1.71-1.06c-.57-.33-1.2-.55-1.84-.88a14.32,14.32,0,0,0-1.8-.84,12.91,12.91,0,0,0-1.91-.38,9.79,9.79,0,0,0-1.93-.11,3.5,3.5,0,0,0-1.64.6c-.53.33-1.15.78-1.76,1.09a7.26,7.26,0,0,0-1.53,1.09,4.64,4.64,0,0,0-.58.68,2.76,2.76,0,0,0-.36.73c-.18.55-.27,1.23-.42,1.92a6.42,6.42,0,0,1-.31,1.11c-.14.35-.29.67-.41,1a4.26,4.26,0,0,0-.43,1.65c0,1,.87,2.36.8,4,0,.77-.13,1.42-.11,2a3.2,3.2,0,0,0,.1.86l.25,1,1,4a11.25,11.25,0,0,0,.59,1.78,12.77,12.77,0,0,0,1,1.64c.86,1.19,1.34,2.62,2,3.58a2.68,2.68,0,0,0,.52.58,6.13,6.13,0,0,0,.75.47,7.89,7.89,0,0,1,1.88,1.24c.56.53,1,1.08,1.41,1.52a3.73,3.73,0,0,0,1.43.93c.57.23,1.24.39,1.93.64A4.79,4.79,0,0,1,213,61c.33.21.62.44.89.64a3.55,3.55,0,0,0,1.51.86l2,.43c1.3.33,2.65.5,4,.74a6.53,6.53,0,0,0,1.92.11,16.63,16.63,0,0,1,2.13,0c1.34,0,2.76.1,4,.11.66,0,1.35-.09,2.06-.1a17.7,17.7,0,0,1,2.09.16c1.37.15,2.71.27,4.09.37.35,0,.69.07,1,.12a3.24,3.24,0,0,1,1.07.3,20.34,20.34,0,0,1,1.75,1.12c1.08.68,2.63.52,3.83,1.34Z"></path><path transform="translate(139, 78) scale(1,1)" d="M134.27.18a10.45,10.45,0,0,0-3.21,2.39,30.23,30.23,0,0,0-2.37,3.29C128,7,127.23,8.14,126.53,9.31c-.37.59-.66,1.14-1.11,1.76s-.9,1.08-1.31,1.59a5.08,5.08,0,0,0-.89,1.63,12.24,12.24,0,0,1-.77,2c-.4.63-.7,1.15-1,1.77a15.64,15.64,0,0,1-1.15,1.76L119,21.48l-.62.84a7.48,7.48,0,0,1-.79.8c-.55.48-1.1.88-1.56,1.3-.2.19-.48.48-.75.71s-.54.46-.82.68l-1.6,1.25c-.52.41-1,.87-1.63,1.3-.3.21-.61.42-.94.61l-.91.5a18.05,18.05,0,0,1-1.93.91,6.22,6.22,0,0,1-1.13.33,9.15,9.15,0,0,1-1.11.12,14.86,14.86,0,0,0-2,.18c-.68.11-1.38.22-2.1.27-.36,0-.73,0-1.08,0l-1,0a14.23,14.23,0,0,1-2.17,0,7.72,7.72,0,0,1-2.2-.56A10.34,10.34,0,0,0,93,30.23a13.1,13.1,0,0,0-1.9,0,4.89,4.89,0,0,1-1.22-.12,5.12,5.12,0,0,1-1.16-.48c-.68-.39-1.22-.85-1.73-1.18a4.8,4.8,0,0,0-.78-.41l-.92-.37a12.61,12.61,0,0,1-2-.89c-1.48-.84-2.08-2.39-2.89-3-.44-.39-1-.72-1.63-1.19a3.33,3.33,0,0,1-.86-.95,4.26,4.26,0,0,1-.41-1.18,8.73,8.73,0,0,1-.08-2.21c0-.67.07-1.37.18-2.09A8.6,8.6,0,0,1,78.18,14a5.14,5.14,0,0,1,1.4-1.78A12.26,12.26,0,0,0,81,10.85c.4-.49.74-1.08,1.19-1.65A5.14,5.14,0,0,1,83.9,7.8c.63-.34,1.28-.6,1.9-.86a21.42,21.42,0,0,1,3.89-1.46A2.67,2.67,0,0,1,91.9,6c.6.44,1.06.87,1.61,1.32A5.41,5.41,0,0,1,94.86,9a5.58,5.58,0,0,1,.51,2.09c0,.69.06,1.38.15,2s.3,1.3.4,2A5.51,5.51,0,0,1,96,16.2a8,8,0,0,0,0,1,13.11,13.11,0,0,1,.09,2.1c-.15,1.51-1.06,2.66-1.39,3.89-.18.62-.27,1.3-.44,2a7,7,0,0,1-.83,2c-.34.61-.7,1.19-1.09,1.77a6.58,6.58,0,0,1-.64.86,6.88,6.88,0,0,1-.78.75,16.53,16.53,0,0,0-1.51,1.31c-.47.49-1,1-1.49,1.45s-1.13.87-1.65,1.26a14.25,14.25,0,0,1-1.76,1.19,15.12,15.12,0,0,1-4.07,1.24,8.93,8.93,0,0,1-2.19,0c-.68-.06-1.26,0-2,0-1.39,0-2.76,0-4.11,0a16.8,16.8,0,0,1-2.11-.12L68,36.51l-1-.15c-.33-.06-.61-.11-.94-.14A19.7,19.7,0,0,1,63.92,36a5.47,5.47,0,0,1-.58-.15l-.46-.13-1-.25a9.32,9.32,0,0,1-2.15-.74,5.64,5.64,0,0,1-1.7-1.67,5.34,5.34,0,0,0-.57-.68c-.11-.11-.47-.37-.74-.59a11.47,11.47,0,0,1-2.83-3.41,5.8,5.8,0,0,1-.64-2.3,4.76,4.76,0,0,1,.31-2.52,2.38,2.38,0,0,1,1.21-1.13,1.73,1.73,0,0,1,1-.14,2.07,2.07,0,0,1,.82.3,8.42,8.42,0,0,1,1.72,1.55l.34.35c.1.1.2.18.32.28l.78.63a8.82,8.82,0,0,1,.86.79c.14.15.27.31.4.48s.26.41.32.49c.29.48.74,1,1.17,1.6a6.71,6.71,0,0,1,.61,1,4.34,4.34,0,0,1,.4,1.25c.12.83.08,1.53.14,2.12a3.64,3.64,0,0,0,.15.8q.13.42.3.9a9.52,9.52,0,0,1,.59,2.22,8,8,0,0,1-.17,2.33l-.44,2a9.5,9.5,0,0,1-.77,2.16,7,7,0,0,1-3.52,3.13c-.4.16-.61.23-.93.38l-.94.41a8,8,0,0,1-2.23.68,13.14,13.14,0,0,1-2.22-.05,5,5,0,0,0-.87,0,8.64,8.64,0,0,1-1.14,0c-.75,0-1.42-.12-2-.13a8.87,8.87,0,0,0-1.85.19c-.34,0-.69.12-1.06.15a5.48,5.48,0,0,1-.57,0h-.53c-.63,0-1.28.09-2,.15-.35,0-.71.06-1.08.07a7.31,7.31,0,0,1-1.16-.07c-.72-.09-1.38-.23-2-.25a3.51,3.51,0,0,0-1.61.35,11.53,11.53,0,0,1-2,.74,11.52,11.52,0,0,0-1.81.57c-.29.13-.58.26-.86.41a10.2,10.2,0,0,1-1,.45,6.47,6.47,0,0,0-1.64.75,2.47,2.47,0,0,0-.83,1.32c-.2.59-.38,1.29-.65,2a9.77,9.77,0,0,0-.51,1.82c-.11.63-.2,1.33-.3,2a8.23,8.23,0,0,0-.13,1.88,3.45,3.45,0,0,0,.58,1.61c.33.5.81,1,1.24,1.55A8.4,8.4,0,0,0,31,65.16a4.77,4.77,0,0,0,.77.49l.91.47a6.36,6.36,0,0,0,1.77.69,7.59,7.59,0,0,0,1.91,0,8.55,8.55,0,0,0,1.9-.43,8.91,8.91,0,0,0,1.81-.78,3.45,3.45,0,0,0,1.35-1.3,8.4,8.4,0,0,0,.69-1.86,11.55,11.55,0,0,0,.69-4l.19,0a11.9,11.9,0,0,1-.48,4.08,9,9,0,0,1-.63,2,4.09,4.09,0,0,1-1.48,1.58,11.15,11.15,0,0,1-3.94,1.51,7.77,7.77,0,0,1-2.16,0,7.36,7.36,0,0,1-2.06-.7l-.92-.43a5.92,5.92,0,0,1-1-.58,9.28,9.28,0,0,1-1.56-1.5c-.43-.51-.92-1-1.36-1.6a4.47,4.47,0,0,1-.86-2.16,9.31,9.31,0,0,1,.05-2.19c.08-.69.14-1.35.24-2.06a10.18,10.18,0,0,1,.52-2.13c.23-.59.37-1.22.59-1.92a4.13,4.13,0,0,1,1.32-2.09,8.15,8.15,0,0,1,2-1,5.85,5.85,0,0,0,.84-.39c.32-.17.65-.33,1-.48a12.64,12.64,0,0,1,2.07-.71,9.43,9.43,0,0,0,1.76-.7,7.87,7.87,0,0,1,1.1-.38,4.53,4.53,0,0,1,1.25-.14c.8,0,1.48.16,2.11.21a4.47,4.47,0,0,0,.89,0c.31,0,.62,0,.95-.08.66-.07,1.36-.17,2.1-.2l.49,0,.45,0,1-.16a11.65,11.65,0,0,1,2.21-.22c.76,0,1.44.1,2.06.12a6.62,6.62,0,0,0,.89,0,7.67,7.67,0,0,1,1.17,0,10.15,10.15,0,0,0,1.87,0A20.94,20.94,0,0,0,59,44.85a5,5,0,0,0,2.48-2.2A7.64,7.64,0,0,0,62.11,41l.41-2a6.31,6.31,0,0,0,.14-1.74,8,8,0,0,0-.49-1.71c-.12-.32-.24-.67-.35-1a6,6,0,0,1-.21-1.2c0-.77,0-1.44-.1-2a2.2,2.2,0,0,0-.21-.69,5.13,5.13,0,0,0-.43-.73c-.35-.52-.8-1-1.22-1.72-.12-.2-.14-.24-.23-.37a3.31,3.31,0,0,0-.25-.3,5.31,5.31,0,0,0-.64-.6l-.8-.66c-.14-.12-.3-.27-.44-.41l-.37-.39a8.08,8.08,0,0,0-1.26-1.22.25.25,0,0,0-.13-.06h0a.41.41,0,0,0-.25.23,3.05,3.05,0,0,0-.14,1.49,3.92,3.92,0,0,0,.42,1.62,9.63,9.63,0,0,0,2.34,2.86c.24.22.46.34.83.7a6.82,6.82,0,0,1,.74.89,4.45,4.45,0,0,0,1.14,1.23,8,8,0,0,0,1.7.6l1,.28.52.17.4.11a18.89,18.89,0,0,0,1.95.24c.35,0,.74.11,1.08.18l1,.16,2,.34a17.69,17.69,0,0,0,2,.15c1.38.06,2.73.1,4.07.12.64,0,1.42,0,2.1.1a8.12,8.12,0,0,0,1.88.07,14.4,14.4,0,0,0,3.77-1,12.07,12.07,0,0,0,1.65-1.06,19.53,19.53,0,0,0,1.63-1.17c.51-.42,1-.88,1.48-1.36a18.69,18.69,0,0,1,1.61-1.32,7.61,7.61,0,0,0,.72-.64,6.07,6.07,0,0,0,.59-.76c.39-.55.76-1.11,1.1-1.69A6.46,6.46,0,0,0,93.59,25c.16-.64.26-1.32.46-2,.41-1.38,1.3-2.5,1.41-3.75a12.11,12.11,0,0,0-.07-2,7.61,7.61,0,0,1,0-1.07,5.22,5.22,0,0,0,0-1c-.09-.64-.27-1.3-.39-2s-.13-1.39-.19-2.06a4.38,4.38,0,0,0-1.68-3.31C92,7,91,5.86,89.84,6.2a18.93,18.93,0,0,0-3.71,1.49,7.41,7.41,0,0,0-3.19,2.09c-.38.51-.7,1.11-1.14,1.7A12.81,12.81,0,0,1,80.33,13a4,4,0,0,0-1.07,1.43,7.31,7.31,0,0,0-.44,1.83c-.07.63-.07,1.3-.1,2a7,7,0,0,0,.13,1.86,3,3,0,0,0,.27.75,2.38,2.38,0,0,0,.53.52c.48.35,1.11.68,1.72,1.17a9.77,9.77,0,0,1,1.47,1.64,4.44,4.44,0,0,0,1.27,1.16,12,12,0,0,0,1.75.75l1,.38a6.07,6.07,0,0,1,1,.54c.63.41,1.14.82,1.65,1.1a2.54,2.54,0,0,0,1.53.36,13.38,13.38,0,0,1,2.19,0,12.12,12.12,0,0,1,2.12.65,6.93,6.93,0,0,0,1.75.47,13.45,13.45,0,0,0,1.91,0c.35,0,.7,0,1.07,0s.64,0,1,0c.64,0,1.29-.13,2-.23a15.64,15.64,0,0,1,2.12-.17,8.69,8.69,0,0,0,.92-.09,3.59,3.59,0,0,0,.83-.23,15.45,15.45,0,0,0,1.77-.81l.89-.47a8.5,8.5,0,0,0,.78-.5c.52-.36,1-.8,1.58-1.23l1.64-1.24c.26-.2.52-.4.76-.61s.45-.42.75-.68c.55-.5,1.12-.88,1.61-1.29a5,5,0,0,0,.66-.63l.63-.78L119.2,19a17,17,0,0,0,1.14-1.63c.34-.56.75-1.2,1.09-1.71a12,12,0,0,0,.76-1.79A5.93,5.93,0,0,1,123.31,12c.46-.54,1-1,1.34-1.52s.76-1.1,1.14-1.65c.76-1.14,1.55-2.26,2.36-3.37.4-.56.79-1.12,1.23-1.63s.86-1.07,1.34-1.57A10.62,10.62,0,0,1,134.18,0Z"></path><path transform="translate(139, 78) scale(1,1)" d="M20.48,62.86a4.29,4.29,0,0,0,.63,1.88,7.68,7.68,0,0,1,.74,2,18.16,18.16,0,0,0,.6,1.94c.11.32.26.6.38,1a7.77,7.77,0,0,1,.26,1,6.93,6.93,0,0,0,.55,1.87c.32.63.57,1.29.83,1.91a10,10,0,0,0,.9,1.75l1.16,1.69c.19.28.39.67.53.88a6.35,6.35,0,0,0,.6.72,9.36,9.36,0,0,1,1.39,1.69,12.18,12.18,0,0,1,.8,2c.11.33.21.64.33.94l.4.94c.27.66.49,1.33.71,2l.35,1c.12.36.21.71.3,1.06.16.7.27,1.37.43,2l.56,2a9.36,9.36,0,0,1,.37,2.2,19.16,19.16,0,0,1-.17,2.14,4.78,4.78,0,0,0,.11,1.8,6.63,6.63,0,0,1,.22,2.32c-.13.66-.15,1.27-.23,2a7.77,7.77,0,0,1-.2,1.12,4.23,4.23,0,0,1-.17.58l-.21.51a20,20,0,0,1-.92,1.92l-.52.93a7.84,7.84,0,0,1-.68.94c-.48.57-1,1.06-1.36,1.55a7.69,7.69,0,0,1-.76.85,10.27,10.27,0,0,1-.87.7l-.79.59c-.25.2-.41.38-.7.63l-1.55,1.4-.78.69a6.65,6.65,0,0,0-.65.65c-.43.48-.83,1-1.4,1.6a3.67,3.67,0,0,1-.47.4l-.39.3c-.26.2-.51.41-.77.63a11,11,0,0,1-1.79,1.33,5.22,5.22,0,0,1-2.34.52c-.35,0-.69,0-1,0l-.41,0-.5.12a10.67,10.67,0,0,1-2.19.27,9.92,9.92,0,0,1-1.11-.06l-1-.1a6.49,6.49,0,0,1-2.22-.54,7.21,7.21,0,0,1-1.78-1.4A10.67,10.67,0,0,1,3.41,116a15.08,15.08,0,0,1-1-4.11,16,16,0,0,0-.29-2,9.18,9.18,0,0,1-.23-2.14,6.63,6.63,0,0,1,.55-2.11c.29-.67.53-1.22.81-1.91a3.38,3.38,0,0,1,1.59-1.58,6,6,0,0,1,2.07-.67,7.63,7.63,0,0,1,2.14.09,18.31,18.31,0,0,0,2,.09,5.18,5.18,0,0,1,1.08.18,6.4,6.4,0,0,1,1,.42c.62.31,1.23.64,1.83,1,1.14.78,2.36,1.33,3.5,2.24s1.68,2.26,2.64,3.2c.45.52.9,1,1.32,1.61s.78,1.12,1.22,1.64a12,12,0,0,1,1.23,1.74,4.85,4.85,0,0,1,.47,2.16c0,.34,0,.68.08,1a6.2,6.2,0,0,0,.21.94,18.1,18.1,0,0,1,.43,2.07c.05.34.09.72.12,1a9.11,9.11,0,0,0,.17,1,8.18,8.18,0,0,1,.3,2.17,19.31,19.31,0,0,1-1.13,4.1c-.21.65-.44,1.32-.72,2a15.82,15.82,0,0,1-1,1.88l-1,1.82a10.22,10.22,0,0,1-1.28,1.75,15,15,0,0,0-1.23,1.53l-1.09,1.74a17.6,17.6,0,0,1-3,3.1,9,9,0,0,1-1.78,1.31l-.88.52-.88.56a13.51,13.51,0,0,1-2,.92L8.8,146a9.68,9.68,0,0,1-2.18.6,10.91,10.91,0,0,1-2.24.12A5.17,5.17,0,0,1,2,146a4.26,4.26,0,0,1-1.81-1.87,2.47,2.47,0,0,1-.14-1.65,2.55,2.55,0,0,1,1-1.3,7.73,7.73,0,0,1,2.16-1c.73-.21,1.3-.37,2-.56a9.71,9.71,0,0,1,2.26-.3q1,0,2.13.06c.72,0,1.45.16,2.08.23s1.38.14,2.13.28a6.68,6.68,0,0,1,1.18.33,5.54,5.54,0,0,1,1.08.61c.62.43,1.14.86,1.59,1.1a11.63,11.63,0,0,1,1.88,1.16,11.17,11.17,0,0,1,1.72,1.52,7.82,7.82,0,0,1,1.16,2.06c.14.34.24.62.38.91s.29.61.44,1a4.57,4.57,0,0,1,.34,1.25,3.17,3.17,0,0,1,0,.69,4.85,4.85,0,0,1-.08.61c-.1.66-.2,1.35-.34,2.07a8.73,8.73,0,0,1-.28,1.09c-.11.36-.25.67-.38,1l-.77,2-.2.5a6.09,6.09,0,0,1-.32.57,6.54,6.54,0,0,1-.72.92,6.61,6.61,0,0,0-1.08,1.43,18,18,0,0,0-.7,1.82,9.46,9.46,0,0,1-.46,1.06c-.2.36-.36.6-.54.91l-1.06,1.75c-.69,1.18-1.25,2.38-1.88,3.6l-.93,1.82a8.77,8.77,0,0,0-.37.85,2.25,2.25,0,0,0-.14.75,18,18,0,0,0,.17,1.95,5.12,5.12,0,0,1,0,1.23c-.07.39-.17.74-.25,1.07a2.82,2.82,0,0,0-.13,1.55,4.29,4.29,0,0,0,1,1.39c.22.25.47.5.71.78l.35.41a2.79,2.79,0,0,0,.28.32,10.6,10.6,0,0,0,1.54,1.12c1.26.82,2.14,1.85,3.26,2.17,1.4.46,2.56,1.25,3.52.78a6.7,6.7,0,0,0,1.56-1.07c.26-.21.57-.45.86-.64l.84-.56a7,7,0,0,0,1.4-1.3,8.7,8.7,0,0,0,1-1.68,13.1,13.1,0,0,0,.85-3.85,4.37,4.37,0,0,0-.46-1.87,7.54,7.54,0,0,0-1-1.69,2.38,2.38,0,0,0-.7-.65,3.71,3.71,0,0,0-.92-.33,10.46,10.46,0,0,1-2-.58l.08-.18a10.58,10.58,0,0,0,2,.46,3.89,3.89,0,0,1,1,.32,2.73,2.73,0,0,1,.84.69,7.71,7.71,0,0,1,1.2,1.74,8.5,8.5,0,0,1,.42,1,4.18,4.18,0,0,1,.2,1.09,10.52,10.52,0,0,1-.19,2.12,9.69,9.69,0,0,1-.51,2.06,8.57,8.57,0,0,1-1,1.92,7.54,7.54,0,0,1-1.54,1.55l-.85.62a8.46,8.46,0,0,0-.76.61,8.07,8.07,0,0,1-1.79,1.29,2.88,2.88,0,0,1-1.24.27,4.35,4.35,0,0,1-1.18-.19c-.71-.22-1.34-.5-1.93-.67-1.58-.44-2.6-1.6-3.66-2.19a10,10,0,0,1-1.8-1.26,4.26,4.26,0,0,1-.42-.43l-.32-.37-.69-.72a5.7,5.7,0,0,1-1.39-1.92,4.29,4.29,0,0,1,0-2.48c.08-.34.16-.66.2-.94a2.8,2.8,0,0,0,0-.82,18.24,18.24,0,0,1-.23-2.14,4.07,4.07,0,0,1,.22-1.26,10,10,0,0,1,.41-1.05l.9-1.86c.61-1.22,1.18-2.53,1.85-3.73l1-1.78.49-.87c.12-.25.24-.53.35-.83a18.89,18.89,0,0,1,.77-2,8.45,8.45,0,0,1,1.36-1.86,6.18,6.18,0,0,0,.55-.7,2.48,2.48,0,0,0,.17-.32l.18-.45.72-1.86c.11-.31.25-.63.35-.92a8.45,8.45,0,0,0,.22-.9c.12-.63.21-1.29.32-2a3.11,3.11,0,0,0,.05-.41,1.15,1.15,0,0,0,0-.32,2.47,2.47,0,0,0-.21-.73c-.1-.27-.25-.56-.4-.89s-.3-.7-.42-1a5.92,5.92,0,0,0-.84-1.51,9.9,9.9,0,0,0-1.37-1.18,10,10,0,0,0-1.62-1,19,19,0,0,1-1.8-1.22,3.4,3.4,0,0,0-1.5-.62c-.6-.13-1.26-.2-1.95-.29s-1.34-.2-2-.24-1.31-.08-2-.08a7.65,7.65,0,0,0-1.81.22c-.59.14-1.33.35-1.93.51a5.72,5.72,0,0,0-1.59.67.79.79,0,0,0-.27.27.62.62,0,0,0,0,.36,2.48,2.48,0,0,0,1,1,3.18,3.18,0,0,0,1.52.52,10.82,10.82,0,0,0,1.86-.08,9.1,9.1,0,0,0,1.78-.48l1.9-.76a12.42,12.42,0,0,0,1.76-.76l.87-.53.9-.5a8.14,8.14,0,0,0,1.55-1.09,16.78,16.78,0,0,0,2.77-2.75L19,136.23a15.43,15.43,0,0,1,1.38-1.65,8.94,8.94,0,0,0,1.19-1.52l1-1.74a15.61,15.61,0,0,0,1.72-3.59,19.59,19.59,0,0,0,1.2-3.76,7.76,7.76,0,0,0-.22-1.9c-.06-.34-.13-.69-.16-1.07s-.05-.67-.09-1a15.38,15.38,0,0,0-.35-2,7.36,7.36,0,0,1-.21-1.06c0-.37,0-.72-.05-1.06a4.13,4.13,0,0,0-.33-1.83,9.8,9.8,0,0,0-1.1-1.64c-.44-.53-.83-1.15-1.21-1.67s-.83-1.06-1.28-1.58c-1-1-1.58-2.35-2.53-3.16s-2.29-1.44-3.4-2.22c-.58-.35-1.17-.69-1.77-1a4,4,0,0,0-1.85-.51c-.65,0-1.35,0-2.09-.07A6.73,6.73,0,0,0,7,102.18a5.26,5.26,0,0,0-1.81.62,2.61,2.61,0,0,0-1.26,1.26c-.44,1.26-1.2,2.52-1.22,3.74A8.44,8.44,0,0,0,3,109.73a18.81,18.81,0,0,1,.37,2,13.59,13.59,0,0,0,1.08,3.82,9.46,9.46,0,0,0,2.15,3.19,6.06,6.06,0,0,0,1.47,1.1,5,5,0,0,0,1.77.34l1,.06a7.5,7.5,0,0,0,.94,0,9.34,9.34,0,0,0,1.87-.3l.5-.13a3.41,3.41,0,0,1,.61-.11c.38,0,.73-.06,1.06-.08a4,4,0,0,0,1.64-.37A10,10,0,0,0,19,118.18c.26-.22.52-.45.81-.68l.42-.33a3.74,3.74,0,0,0,.31-.27c.41-.4.8-1,1.28-1.51a8.73,8.73,0,0,1,.8-.81l.74-.68,1.49-1.36c.24-.21.54-.53.82-.76l.85-.65c.27-.2.51-.4.73-.59a6.11,6.11,0,0,0,.61-.67c.48-.57,1-1.05,1.38-1.53a5.52,5.52,0,0,0,.53-.72l.5-.85c.32-.59.62-1.18.88-1.77l.18-.44a4,4,0,0,0,.13-.41,7.58,7.58,0,0,0,.17-.9c.08-.62.12-1.38.26-2.06a5.44,5.44,0,0,0-.17-1.75,7.5,7.5,0,0,1-.16-1.13,7.07,7.07,0,0,1,0-1.15,16.75,16.75,0,0,0,.19-2,7.38,7.38,0,0,0-.29-1.84l-.54-2c-.17-.71-.26-1.4-.39-2a9,9,0,0,0-.23-.93l-.32-1c-.2-.66-.39-1.31-.61-1.92l-.38-1c-.12-.34-.22-.68-.32-1A11.48,11.48,0,0,0,28,81.7a7.91,7.91,0,0,0-1.17-1.51,6.2,6.2,0,0,1-.68-.88c-.22-.37-.32-.61-.51-.9l-1.11-1.73a10.31,10.31,0,0,1-.89-2c-.24-.65-.44-1.29-.72-1.89a7.84,7.84,0,0,1-.5-2.09,9.25,9.25,0,0,0-.19-1c-.08-.29-.23-.63-.33-1-.21-.67-.37-1.35-.51-2a7.92,7.92,0,0,0-.59-1.92,4.37,4.37,0,0,1-.52-2Z"></path><path transform="translate(139, 78) scale(1,1)" d="M18.45,192.14c.59.38,1.09.86,1.63,1.25a3.34,3.34,0,0,0,1.79.67c.66.05,1.34,0,2,0a6.39,6.39,0,0,1,2.1.36,8.2,8.2,0,0,0,1.91.44,19.43,19.43,0,0,0,2,0l1,0a7.72,7.72,0,0,0,1,0c.63-.07,1.28-.26,2-.36a5.12,5.12,0,0,1,2.24.19,11.45,11.45,0,0,0,1.89.46,18.85,18.85,0,0,0,2,0,9.43,9.43,0,0,1,2.2.14,18.72,18.72,0,0,1,2,.73,4.69,4.69,0,0,0,1.78.28,10.42,10.42,0,0,1,2.18.12l2,.51a16.93,16.93,0,0,1,2,.68c.63.24,1.29.48,2,.78a16.44,16.44,0,0,1,3.57,2.41,4.84,4.84,0,0,1,.84.85,10.81,10.81,0,0,1,.62.94,7.29,7.29,0,0,0,1,1.51c.37.36,1,.7,1.58,1.19a4.2,4.2,0,0,1,.88.94,5.77,5.77,0,0,1,.52,1.11c.25.72.4,1.39.59,2s.49,1.16.76,1.8a13,13,0,0,1,.75,2.08,7.87,7.87,0,0,1,.09,2.29,6.89,6.89,0,0,0,0,.91,2.82,2.82,0,0,0,.17.77c.2.53.55,1.1.87,1.81a3.85,3.85,0,0,1,.32,1.23l.11,1c.07.69.14,1.39.15,2.13a6.68,6.68,0,0,1-.38,2.27c-.23.7-.51,1.3-.68,1.91a6.34,6.34,0,0,1-1.07,2c-.44.6-.85,1.07-1.2,1.62a9.73,9.73,0,0,1-1.34,1.75,4,4,0,0,1-1,.68,9.63,9.63,0,0,1-1,.42,9.49,9.49,0,0,1-2.13.53,19.14,19.14,0,0,1-2.13.08,10,10,0,0,1-2.15-.24,8.62,8.62,0,0,1-2-.86c-.61-.36-1.16-.58-1.83-1a16.29,16.29,0,0,1-1.7-1.26,7.72,7.72,0,0,0-1.64-1.1A8.92,8.92,0,0,1,45,229a5,5,0,0,1-1.2-1.85,4.5,4.5,0,0,1-.29-2.19,3.61,3.61,0,0,1,1.22-1.86,8.7,8.7,0,0,0,1.34-1.47c.36-.54.68-1.17,1.14-1.74A5.36,5.36,0,0,1,49,218.54c.61-.34,1.24-.62,1.84-.93a8.21,8.21,0,0,1,2-.7,14.27,14.27,0,0,0,1.92-.57c.61-.25,1.23-.57,1.89-.82a4.54,4.54,0,0,1,2.16-.32c.72.06,1.38.2,2,.19a7.25,7.25,0,0,0,1.91-.4,8.41,8.41,0,0,1,1.07-.23,5.61,5.61,0,0,1,1.09,0c.68,0,1.37.06,2.08.15a6.18,6.18,0,0,1,1.08.2,3.27,3.27,0,0,1,1.06.57c.58.46,1,1,1.52,1.3a13.34,13.34,0,0,0,1.79.77,8,8,0,0,1,1,.46c.34.17.66.44.89.58.53.33,1.17.6,1.8,1a4.83,4.83,0,0,1,.91.75,4.44,4.44,0,0,1,.66,1c.33.67.55,1.32.83,1.85l.52.88c.17.32.33.64.48,1,.3.63.57,1.23.9,1.79l1,1.78c.17.32.34.64.48,1l.37,1,.73,2c.22.64.46,1.2.74,1.85a8.42,8.42,0,0,1,.66,2.18,14.69,14.69,0,0,1,.06,2.17,39.52,39.52,0,0,1,.1,4.18,10.81,10.81,0,0,1-.44,2.18c-.2.71-.51,1.39-.73,2a10.61,10.61,0,0,1-.93,2.06,2.89,2.89,0,0,1-2.59,1.33,3.3,3.3,0,0,1-1.36-.43,6,6,0,0,1-1-.7,2.79,2.79,0,0,1-.84-1.32,3.57,3.57,0,0,1-.07-1.4,13.49,13.49,0,0,1,.54-2.17,11.83,11.83,0,0,1,.86-2.06c.32-.55.53-1.12.84-1.8a6.35,6.35,0,0,1,1.33-2,15.63,15.63,0,0,1,1.75-1.33,4.49,4.49,0,0,0,1.21-1.21,9.43,9.43,0,0,1,1.45-1.77,7.71,7.71,0,0,1,2.1-1.15l1-.36.49-.16.24-.08a3.58,3.58,0,0,1,.35-.09,5.52,5.52,0,0,1,2.49.16,6.74,6.74,0,0,0,1.82.27,5.37,5.37,0,0,1,2.46.53,4,4,0,0,1,.57.4l.4.34.79.7a18.15,18.15,0,0,1,1.51,1.53c.45.49.93,1,1.4,1.53.24.27.48.55.7.85a4.47,4.47,0,0,1,.62,1.13c.29.75.43,1.42.64,1.92a3.8,3.8,0,0,0,1,1.3,7.91,7.91,0,0,1,1.51,1.75l1.07,1.74c.7,1.18,1.45,2.28,2.18,3.41l.28.43c.1.15.22.33.31.49.19.34.34.67.49,1a5.26,5.26,0,0,0,.9,1.52,26.39,26.39,0,0,0,3.23,2.28,7.53,7.53,0,0,0,1.53,1,1.88,1.88,0,0,0,.72.14,3.29,3.29,0,0,0,.84-.11c.62-.13,1.31-.36,2.07-.45s1.46-.09,2.09-.14a3.14,3.14,0,0,0,1.62-.48,8,8,0,0,0,1.42-1.25,8.39,8.39,0,0,0,2.38-3,9.36,9.36,0,0,0,.3-3.85,7.74,7.74,0,0,0-.24-1.91,4.15,4.15,0,0,0-.94-1.58c-.43-.48-.94-.92-1.45-1.39a13.78,13.78,0,0,0-1.53-1.29,4.55,4.55,0,0,0-3.75-.42,8.92,8.92,0,0,0-3.62,1.73l-.12-.16a9.29,9.29,0,0,1,3.64-2,8.06,8.06,0,0,1,2.09-.31,4,4,0,0,1,2.09.6,13.57,13.57,0,0,1,1.67,1.27,19.66,19.66,0,0,1,1.59,1.37,4.81,4.81,0,0,1,1.21,1.87,8.17,8.17,0,0,1,.35,2.14,10.42,10.42,0,0,1-.2,4.28,9.52,9.52,0,0,1-2.53,3.49,9.33,9.33,0,0,1-1.61,1.5,4.51,4.51,0,0,1-2.24.78c-.73.07-1.39.09-2,.18s-1.21.3-1.93.48a5.15,5.15,0,0,1-1.18.17,3.47,3.47,0,0,1-1.29-.22,8.11,8.11,0,0,1-1.94-1.17,23.8,23.8,0,0,1-3.5-2.39,6.85,6.85,0,0,1-1.26-2c-.15-.31-.29-.59-.44-.85l-.24-.36-.3-.43c-.78-1.15-1.6-2.3-2.32-3.46L103,246a7.28,7.28,0,0,0-1.2-1.31,5.82,5.82,0,0,1-1.47-2c-.32-.76-.45-1.44-.67-2a2.3,2.3,0,0,0-.37-.67c-.18-.24-.38-.49-.6-.73-.43-.49-.9-1-1.38-1.49a18.11,18.11,0,0,0-1.38-1.39l-.75-.65-.38-.32a2,2,0,0,0-.27-.19A3.37,3.37,0,0,0,93,235.1a10,10,0,0,1-1.14-.09c-.4-.06-.76-.15-1.09-.22a3.68,3.68,0,0,0-1.57-.15l-.14,0-.25.08-.48.16c-.32.11-.62.21-.92.33a9,9,0,0,0-.83.37,4,4,0,0,0-.66.43,8.52,8.52,0,0,0-1.12,1.41,6.39,6.39,0,0,1-1.68,1.68,13,13,0,0,0-1.54,1.12c-.73.63-1.08,2-1.83,3.3a9.39,9.39,0,0,0-.74,1.71,14,14,0,0,0-.49,1.8,1.59,1.59,0,0,0,0,.63.76.76,0,0,0,.25.39,2.67,2.67,0,0,0,1.24.68,1,1,0,0,0,.88-.49,9.9,9.9,0,0,0,.76-1.67c.27-.68.53-1.25.71-1.85a9.73,9.73,0,0,0,.39-1.84,10.87,10.87,0,0,0,0-1.9l0-1a10.33,10.33,0,0,1,0-1.11,13.79,13.79,0,0,0,0-1.93,6.66,6.66,0,0,0-.5-1.75c-.25-.6-.53-1.31-.74-2l-.66-1.9-.33-.95c-.12-.29-.26-.57-.41-.87l-1-1.79c-.34-.63-.62-1.3-.89-1.91-.13-.3-.27-.6-.42-.89l-.49-.91c-.33-.69-.53-1.35-.79-1.92a2.84,2.84,0,0,0-1.09-1.29c-.5-.36-1.12-.64-1.75-1.06a9.75,9.75,0,0,0-.81-.57,6.9,6.9,0,0,0-.86-.43,12.37,12.37,0,0,1-1.94-.92c-.64-.46-1.08-1-1.56-1.4a2.45,2.45,0,0,0-.72-.42,6.35,6.35,0,0,0-.93-.2c-.65-.1-1.33-.14-2-.2a5.28,5.28,0,0,0-1,0,6.74,6.74,0,0,0-.94.18,8.23,8.23,0,0,1-2.11.37c-.75,0-1.43-.16-2.08-.22a3.74,3.74,0,0,0-1.86.27c-.62.22-1.22.52-1.88.78a12.78,12.78,0,0,1-2,.58,7.51,7.51,0,0,0-1.87.64c-.62.3-1.24.58-1.83.89a4.5,4.5,0,0,0-1.53,1.16,19.41,19.41,0,0,0-1.09,1.71,9.3,9.3,0,0,1-1.4,1.58,3.08,3.08,0,0,0-1,1.5,4.33,4.33,0,0,0,1.3,3.39,7.86,7.86,0,0,0,1.68,1A10,10,0,0,1,49,230.56a13.75,13.75,0,0,0,1.64,1.13c.52.28,1.25.57,1.83.88a7.7,7.7,0,0,0,1.79.7,8.69,8.69,0,0,0,1.92.15,15.87,15.87,0,0,0,2-.15,8,8,0,0,0,1.84-.52c.3-.12.59-.26.88-.4a2.61,2.61,0,0,0,.67-.48,9,9,0,0,0,1.08-1.56c.78-1.26,1.72-2.2,2-3.31.18-.72.45-1.38.62-2a5.43,5.43,0,0,0,.26-1.77c0-.63-.08-1.29-.16-2l-.12-1a2.12,2.12,0,0,0-.21-.74c-.23-.54-.62-1.13-.91-1.88a4.11,4.11,0,0,1-.29-1.22,7.29,7.29,0,0,1,0-1.14,6.42,6.42,0,0,0-.07-1.8,11,11,0,0,0-.66-1.77,15.34,15.34,0,0,1-.82-2c-.23-.71-.36-1.39-.56-2a3.75,3.75,0,0,0-.33-.75,2.39,2.39,0,0,0-.52-.55c-.44-.39-1-.72-1.67-1.31a8.68,8.68,0,0,1-1.28-1.87,6.19,6.19,0,0,0-.49-.78,3.12,3.12,0,0,0-.6-.61,14.92,14.92,0,0,0-3.17-2.22c-.58-.28-1.21-.51-1.86-.77a15.32,15.32,0,0,0-1.86-.66l-1.94-.51a10.83,10.83,0,0,0-1.9-.14,9,9,0,0,1-1.12-.11,5.59,5.59,0,0,1-1.12-.32,18.3,18.3,0,0,0-1.83-.75,7.77,7.77,0,0,0-1.88-.17c-.68,0-1.36,0-2.12-.07a12.14,12.14,0,0,1-2.07-.57,4,4,0,0,0-1.81-.22c-.63.07-1.3.23-2,.29s-1.38,0-2.09,0-1.37,0-2.09-.06A9.3,9.3,0,0,1,25.8,195a5.82,5.82,0,0,0-1.91-.43c-.66,0-1.35,0-2.06-.07a3.64,3.64,0,0,1-1.95-.88c-.54-.44-1-1-1.54-1.35Z"></path><path transform="translate(139, 78) scale(1,1)" d="M220.69,131.26c0,5.82-1.37,11.52-2.91,17.09l-2.29,8.38c-.78,2.78-1.62,5.56-2.58,8.3a56.38,56.38,0,0,1-8,15.46c-3.52,4.66-7.75,8.7-11.76,12.83s-7.51,8.8-12.06,12.59a31.34,31.34,0,0,1-7.5,4.73,53.52,53.52,0,0,1-8.33,2.85c-2.82.75-5.65,1.4-8.45,2.07s-5.62,1.47-8.48,2a87.21,87.21,0,0,1-17.42,1.59c-5.71,0-11.51.85-17.41.36a32.17,32.17,0,0,1-8.59-2,68.14,68.14,0,0,1-8-3.52c-2.59-1.33-5.11-2.77-7.61-4.23-1.25-.73-2.51-1.45-3.73-2.27a36.43,36.43,0,0,1-3.48-2.67C77.63,201,74,196.48,69.9,192.41s-8.31-8.09-11.83-12.75a40.82,40.82,0,0,1-4.52-7.47A61.7,61.7,0,0,1,50.49,164c-.86-2.78-1.58-5.59-2.32-8.38s-1.53-5.6-2.14-8.43A76,76,0,0,1,44.1,129.9c-.05-5.78-.23-11.62.65-17.44a42.94,42.94,0,0,1,.88-4.32q.57-2.13,1.35-4.2A66,66,0,0,1,50.72,96c1.4-2.56,2.89-5.05,4.34-7.55s2.7-5,3.92-7.66,2.46-5.27,4-7.81a36.27,36.27,0,0,1,2.49-3.7,32.75,32.75,0,0,1,3-3.3,85.75,85.75,0,0,1,14-10.54c1.24-.77,2.48-1.52,3.74-2.25a29.33,29.33,0,0,1,4-2,53,53,0,0,1,8.49-2.49c2.85-.62,5.69-1.16,8.47-1.81a63.58,63.58,0,0,0,8.16-2.55c2.7-1,5.43-2.06,8.28-2.85a29.38,29.38,0,0,1,8.86-1.24,79.66,79.66,0,0,1,17.37,2.5c2.83.69,5.64,1.41,8.44,2.25s5.55,1.82,8.27,2.91a83.16,83.16,0,0,1,8,3.71c1.29.7,2.56,1.42,3.81,2.22s2.43,1.69,3.58,2.61c4.59,3.7,8.41,8.12,12.44,12.23A87.08,87.08,0,0,1,205.2,82.34c1.59,2.43,3,5,4.44,7.49s2.84,5,4.14,7.64a65.6,65.6,0,0,1,3.38,8,66.78,66.78,0,0,1,2.08,8.45A95.64,95.64,0,0,1,220.69,131.26Zm-.2,0A94.07,94.07,0,0,0,218.9,114a65.1,65.1,0,0,0-2.13-8.38,56.69,56.69,0,0,0-3.48-7.91c-1.34-2.55-2.8-5-4.29-7.53s-2.93-5-4.56-7.35a86.31,86.31,0,0,0-11-13.22c-4.15-4.06-8.07-8.33-12.55-11.86-1.12-.87-2.27-1.7-3.47-2.46s-2.45-1.43-3.71-2.09a82.14,82.14,0,0,0-7.83-3.53,125.69,125.69,0,0,0-16.48-5,77.51,77.51,0,0,0-16.93-2.41c-5.6-.16-11,2-16.39,4a65.05,65.05,0,0,1-8.4,2.65c-2.85.68-5.71,1.18-8.51,1.79A50.56,50.56,0,0,0,91,53.08a27.17,27.17,0,0,0-3.76,1.83c-1.25.72-2.49,1.46-3.71,2.21A84.37,84.37,0,0,0,69.72,67.34c-4.22,3.77-6.67,9-9.17,14.21-1.25,2.6-2.57,5.25-4.09,7.74s-3,4.95-4.41,7.45a46.67,46.67,0,0,0-6,15.93c-.92,5.64-.83,11.44-.85,17.22A75.49,75.49,0,0,0,46.86,147c.57,2.82,1.29,5.61,2,8.42s1.44,5.6,2.27,8.37a59.47,59.47,0,0,0,3,8.09,39.69,39.69,0,0,0,4.41,7.38c3.44,4.62,7.72,8.55,11.83,12.62s7.8,8.6,12.2,12.29A35.8,35.8,0,0,0,86,206.77c1.19.77,2.45,1.47,3.71,2.18,2.52,1.42,5,2.81,7.64,4.07a66.23,66.23,0,0,0,7.93,3.34,30.86,30.86,0,0,0,8.29,1.78c5.68.4,11.43-.52,17.28-.62a85.16,85.16,0,0,0,17.1-1.65c2.83-.54,5.56-1.3,8.4-2s5.66-1.29,8.43-2a52.06,52.06,0,0,0,8.11-2.68,30.23,30.23,0,0,0,7.18-4.43c4.38-3.62,8-8.16,12.15-12.27s8.4-8,12-12.5a55.12,55.12,0,0,0,8.2-15.1c2.09-5.38,3.41-11,5-16.59S220.48,137.05,220.49,131.26Z"></path></g></g></g><g xmlns="http://www.w3.org/2000/svg" fill="#e9d15c" id="icon-svg">
	<path transform="translate(202.5, 142.5) scale(0.7,0.7)" d="M 67.010 34.316 C 65.091 34.927, 61.648 37.299, 59.360 39.587 C 54.332 44.616, 52.110 52.117, 53.818 58.302 C 54.796 61.845, 53.858 64.662, 36.927 108.998 C 19.817 153.804, 19 156.265, 19 163.003 C 19 168.683, 19.327 170.188, 20.675 170.705 C 21.636 171.074, 35.764 166.906, 53.830 160.924 C 78.806 152.654, 85.413 150.798, 85.803 151.943 C 86.074 152.737, 87.384 154.475, 88.714 155.805 C 90.649 157.740, 91.768 158.096, 94.313 157.587 C 98.708 156.708, 100.902 154.183, 101.790 148.981 L 102.546 144.552 132.523 134.779 C 170.153 122.512, 170.497 122.381, 174.656 118.729 C 179.484 114.490, 181.324 110.424, 181.320 104 C 181.315 96.018, 178.696 91.814, 165.260 78.228 C 140.986 53.681, 116.705 39.436, 90.750 34.512 C 81.620 32.780, 72.079 32.701, 67.010 34.316 M 66.299 41.891 C 62.054 44.570, 59.816 49.103, 60.195 54.257 L 60.500 58.402 69.500 59.679 C 93.832 63.132, 114.304 73.458, 133.187 91.800 L 141.874 100.238 143.297 96.869 C 146.010 90.445, 153.429 85, 159.468 85 C 160.861 85, 162 84.572, 162 84.049 C 162 82.445, 142.981 66.171, 134.397 60.431 C 115.357 47.696, 97.418 41.064, 80 40.320 C 70.720 39.923, 69.128 40.106, 66.299 41.891 M 60.624 65.799 C 60.351 66.241, 59.219 68.908, 58.108 71.726 L 56.089 76.849 61.621 74.316 C 71.810 69.651, 85.544 72.324, 90.750 79.985 C 95.736 87.322, 92.638 96.398, 83.732 100.545 C 72.507 105.770, 58.234 102.365, 53.451 93.320 L 51.256 89.169 39.561 119.184 C 33.128 135.692, 28.094 149.427, 28.373 149.706 C 28.652 149.985, 35.467 147.834, 43.518 144.925 C 58.009 139.690, 58.127 139.623, 55.328 138.200 C 44.419 132.654, 42.480 122.317, 50.918 114.693 C 65.484 101.533, 93.271 114.142, 85.807 130.525 C 84.982 132.335, 84.939 133.353, 85.667 133.822 C 86.997 134.678, 89.998 140.474, 90.006 142.200 C 90.020 145.514, 92.228 151, 93.547 151 C 95.352 151, 95.077 152.314, 95.886 139.789 C 96.765 126.186, 97.324 125.520, 112.365 120.155 C 118.489 117.971, 127.444 114.747, 132.264 112.992 L 141.029 109.800 134.764 102.724 C 122.542 88.917, 106.343 77.498, 91.118 71.957 C 79.521 67.737, 61.656 64.129, 60.624 65.799 M 66.968 78.941 C 60.494 80.908, 56.804 85.896, 58.910 89.832 C 63.146 97.747, 77.549 99.178, 84.366 92.361 C 87.705 89.022, 87.708 85.981, 84.377 82.649 C 80.363 78.636, 73.080 77.084, 66.968 78.941 M 155.457 92.863 C 149.831 96.294, 146.832 103.797, 148.906 109.252 C 149.477 110.754, 149.708 112.598, 149.419 113.350 C 148.947 114.581, 107.772 131, 105.157 131 C 103.658 131, 101.808 134.708, 102.187 136.952 C 102.466 138.599, 106.109 137.552, 135.500 127.372 C 172.313 114.622, 173.818 113.793, 174.721 105.787 C 175.951 94.869, 164.627 87.271, 155.457 92.863 M 56.992 118.250 C 52.406 121.373, 51.370 123.314, 52.538 126.595 C 54.120 131.038, 58.245 133.362, 65.261 133.763 C 75.662 134.358, 82.850 128.667, 79.803 122.250 C 76.872 116.076, 63.601 113.749, 56.992 118.250 M 51.750 148.767 C 25.709 158.168, 25 158.495, 25 161.133 L 25 163.842 53.750 154.295 C 69.563 149.044, 82.790 144.467, 83.146 144.124 C 84.333 142.976, 82.087 138.999, 80.282 139.055 C 79.302 139.085, 66.463 143.456, 51.750 148.767" stroke="none" fill-rule="evenodd"></path>
</g><path xmlns="http://www.w3.org/2000/svg" id="SvgjsPath1325300" d="M11.48 0.60Q10.20 0.60 9.48-0.64Q8.76-1.87 8.76-3.66L8.76-3.66Q8.76-6.46 9.10-10.54L9.10-10.54L9.27-12.75L9.44-17.26Q9.44-20.23 8.84-30.52L8.84-30.52Q8.25-40.80 8.25-43.78L8.25-43.78Q8.25-44.03 8.29-44.75Q8.33-45.48 8.33-47.01L8.33-47.01Q8.42-48.71 8.42-51.17L8.42-51.17Q8.42-57.38 7.57-59.08L7.57-59.08Q7.06-59.08 5.36-58.82L5.36-58.82L2.98-58.65Q1.87-58.65 1.02-59.29Q0.17-59.93 0.17-60.95L0.17-60.95Q0.17-61.97 2.21-62.73L2.21-62.73Q5.19-63.75 12.33-64.18L12.33-64.18Q15.22-64.34 15.81-64.34L15.81-64.34Q16.83-64.34 17.68-63.67Q18.53-62.99 18.53-61.97L18.53-61.97Q18.53-60.95 17.81-60.31Q17.09-59.67 15.98-59.67L15.98-59.67L14.45-59.76Q13.77-59.84 12.92-59.84L12.92-59.84L12.07-59.84Q12.67-54.06 12.67-49.39L12.67-49.39L12.58-43.95Q12.50-41.48 12.50-38.42L12.50-38.42Q12.50-34.34 12.84-28.65L12.84-28.65Q13.26-21.59 13.26-18.87L13.26-18.87Q13.26-15.64 13.60-11.22L13.60-11.22Q13.94-6.72 13.94-3.57L13.94-3.57Q13.94 0.60 11.48 0.60L11.48 0.60ZM31.37 1.10Q30.26 1.10 29.37 0.34Q28.48-0.43 28.39-1.53L28.39-1.53L28.39-3.74L28.39-5.44Q28.31-6.21 28.31-7.23L28.31-7.23Q28.31-9.01 28.05-12.67L28.05-12.67L27.88-18.11Q27.88-22.27 28.14-30.52L28.14-30.52Q28.48-37.91 28.48-42.93L28.48-42.93Q28.48-44.12 28.22-46.50L28.22-46.50Q27.97-48.96 27.97-50.07L27.97-50.07Q27.97-56.10 31.54-56.10L31.54-56.10Q34.34-56.10 38.04-55.00Q41.73-53.89 41.73-52.36L41.73-52.36Q41.73-51.51 41.01-50.79Q40.29-50.07 39.27-49.64L39.27-49.64Q35.70-50.92 32.81-51.34L32.81-51.34Q32.90-50.07 32.90-47.69L32.90-47.69Q32.90-44.29 32.81-41.57L32.81-41.57Q32.56-37.48 32.56-35.45L32.56-35.45L32.81-34.09L34.17-34.17Q34.85-34.26 35.87-34.26L35.87-34.26Q39.95-34.26 39.95-31.88L39.95-31.88Q39.95-30.94 39.19-30.30Q38.42-29.67 37.23-29.67L37.23-29.67Q35.70-29.67 34.85-29.84L34.85-29.84L32.73-29.84Q32.90-27.63 32.90-23.38L32.90-23.38Q32.90-19.13 32.81-15.73L32.81-15.73Q32.56-10.54 32.56-7.99L32.56-7.99Q32.56-3.23 32.73-3.23L32.73-3.23L35.53-3.32Q36.98-3.40 39.02-3.40L39.02-3.40Q42.25-3.40 42.25-1.36L42.25-1.36Q42.25-0.17 41.18 0.47Q40.12 1.10 38.59 1.10L38.59 1.10L31.37 1.10ZM85.85 4.42Q83.22 4.42 83.22-0.85L83.22-0.85L83.22-6.29L83.22-11.73Q83.22-15.98 82.62-22.87L82.62-22.87Q81.94-30.60 81.94-33.49L81.94-33.49L82.11-38.76Q82.28-41.05 82.28-43.95L82.28-43.95Q81.94-42.84 79.48-32.22L79.48-32.22Q77.01-21.93 74.38-13.18L74.38-13.18Q71.83-4.76 70.21-4.76L70.21-4.76Q68.59-4.76 67.62-5.74Q66.64-6.72 66.64-8.42L66.64-8.42Q66.64-12.16 63.62-24.31Q60.61-36.47 58.14-44.20L58.14-44.20L57.63-34.60Q56.95-22.44 56.70-14.37L56.70-14.37Q56.53-6.55 56.53-3.66L56.53-3.66Q56.53-2.98 56.61-2.38L56.61-2.38L56.61-1.19Q56.61 0.26 56.02 0.98Q55.42 1.70 53.81 1.70L53.81 1.70Q52.96 1.70 52.19 1.06Q51.43 0.43 51.43-0.34L51.43-0.34Q51.43-9.01 52.70-26.35L52.70-26.35Q53.98-43.69 53.98-52.36L53.98-52.36Q53.47-53.13 53.47-53.98L53.47-53.98Q53.47-55.00 54.44-55.55Q55.42-56.10 56.78-56.10L56.78-56.10Q57.89-56.10 60.86-48.11Q63.84-40.12 66.81-30.01Q69.78-19.89 70.64-15.39L70.64-15.39Q71.31-17.68 71.74-19.64L71.74-19.64L72.25-21.68Q74.97-33.58 77.69-43.18L77.69-43.18Q79.31-49.05 80.84-52.36L80.84-52.36Q82.37-55.93 83.64-55.93L83.64-55.93Q84.83-55.93 85.81-55.29Q86.78-54.66 86.78-53.64L86.78-53.64Q86.78-47.52 87.30-35.28L87.30-35.28Q87.89-23.89 87.89-17.60L87.89-17.60L87.81-13.09L87.64-8.59Q87.64-7.57 87.89-5.53L87.89-5.53L88.15-2.55Q88.23-1.79 88.27-1.36Q88.31-0.94 88.31-0.85L88.31-0.85Q88.74 0.26 88.74 0.77L88.74 0.77Q88.74 2.21 87.89 3.32Q87.04 4.42 85.85 4.42L85.85 4.42ZM104.04 1.87Q100.98 1.87 98.77 0.77L98.77 0.77Q97.41 0 97.41-1.02L97.41-1.02Q97.41-2.04 97.92-2.68Q98.43-3.32 99.36-3.32L99.36-3.32Q100.22-3.32 101.83-2.64L101.83-2.64Q103.61-1.96 104.04-1.96L104.04-1.96Q105.66-1.96 106.97-3.36Q108.29-4.76 109.06-7.06L109.06-7.06Q110.59-11.31 110.59-14.71L110.59-14.71Q110.59-18.36 109.44-22.40Q108.29-26.44 106.33-30.26L106.33-30.26L104.97-32.98Q102.85-37.23 101.70-39.70Q100.56-42.16 99.70-45.05L99.70-45.05Q98.43-49.13 98.43-52.96L98.43-52.96Q98.43-56.02 99.49-58.74Q100.56-61.46 102.68-63.33L102.68-63.33Q104.81-65.37 107.95-65.37L107.95-65.37Q109.48-65.37 110.92-64.47Q112.37-63.58 112.97-62.22L112.97-62.22L111.52-60.44Q109.31-60.44 108.20-61.29L108.20-61.29Q106.67-61.12 105.53-59.80Q104.38-58.48 103.78-56.78L103.78-56.78Q103.28-55.17 103.28-53.55L103.28-53.55Q103.28-50.32 104.17-46.96Q105.06-43.61 106.50-40.63L106.50-40.63L112.45-28.73Q113.90-25.67 114.75-21.85Q115.60-18.02 115.60-14.20L115.60-14.20Q115.60-8.59 112.88-3.66L112.88-3.66Q111.44-1.10 109.14 0.38Q106.84 1.87 104.04 1.87L104.04 1.87ZM142.12 0.77Q140.16 0.77 139.23 0.17Q138.29-0.43 138.29-2.04L138.29-2.04Q138.29-4.59 137.44-10.71L137.44-10.71L137.10-12.50L128.69-13.77Q128.18-11.82 127.25-5.87L127.25-5.87Q126.73-1.70 125.63-0.34L125.63-0.34Q125.03 0.43 123.93 0.43L123.93 0.43Q122.91 0.43 122.06-0.21Q121.21-0.85 121.21-1.79L121.21-1.79L121.38-2.21L121.47-2.55Q127.08-24.40 129.97-45.65L129.97-45.65Q129.97-45.99 130.05-46.79Q130.13-47.60 130.22-49.13L130.22-49.13Q130.47-52.28 130.77-54.15Q131.07-56.02 131.75-56.95L131.75-56.95L134.64-56.95Q135.83-56.95 136.68-56.40Q137.53-55.85 137.53-54.83L137.53-54.83Q137.53-48.37 139.31-35.62L139.31-35.62Q141.01-22.53 141.01-17.26L141.01-17.26Q141.01-16.75 141.44-14.62L141.44-14.62Q141.87-12.67 141.87-12.07L141.87-12.07Q141.87-11.48 142.72-6.97L142.72-6.97Q143.48-2.89 143.48-1.70L143.48-1.70L143.48-1.62Q143.48 0.26 142.12 0.77L142.12 0.77ZM136.51-15.56Q136.25-16.83 136.25-18.70L136.25-18.70Q136.25-26.35 134.90-38.25L134.90-38.25L134.04-47.09Q130.39-27.12 129.03-16.92L129.03-16.92Q130.31-16.07 136.51-15.56L136.51-15.56ZM174.00 0.26Q172.97 0.26 172.47-0.30Q171.95-0.85 171.70-2.21L171.70-2.21L171.19-3.83L171.19-4.00L171.19-4.25Q171.19-7.06 165.37-23.38Q159.54-39.70 156.23-47.52L156.23-47.52L156.23-4.76L156.57-4.17Q156.66-4.00 156.91-3.57Q157.16-3.15 157.16-2.72L157.16-2.72Q157.16-1.62 156.40-0.85Q155.63-0.09 154.53-0.09L154.53-0.09Q151.81-0.09 151.81-5.27L151.81-5.27L151.72-19.80Q151.64-26.35 151.64-34.43L151.64-34.43Q151.64-37.15 151.89-42.33L151.89-42.33Q152.15-47.69 152.15-50.24L152.15-50.24Q152.15-54.23 155.21-56.53L155.21-56.53L155.21-56.02Q155.72-56.19 155.89-56.19L155.89-56.19Q157.84-56.19 160.82-49.39L160.82-49.39Q163.20-43.95 165.11-37.91Q167.02-31.88 170.17-20.74L170.17-20.74L171.02-17.68Q172.97-10.79 174.00-7.82L174.00-7.82Q175.69-26.10 175.69-51.00L175.69-51.00L175.69-52.11Q175.61-52.62 175.61-53.21L175.61-53.21Q175.61-55.76 177.65-55.76L177.65-55.76Q178.84-55.76 179.48-54.83Q180.12-53.89 180.12-52.45L180.12-52.45L180.12-46.07Q179.94-32.98 179.09-17.68Q178.25-2.38 177.06-0.43L177.06-0.43Q174.59 0.26 174.00 0.26L174.00 0.26ZM195.75-0.09Q188.36-0.09 188.36-2.64L188.36-2.64Q188.36-4.68 191.00-4.68L191.00-4.68L191.93-4.68L192.78-4.59Q193.46-4.59 193.72-5.02Q193.97-5.44 193.97-6.55L193.97-6.55Q193.97-7.99 193.80-11.05L193.80-11.05Q193.54-13.09 193.20-18.36L193.20-18.36Q192.44-31.37 192.44-38.00L192.44-38.00Q192.44-40.38 192.53-42.33L192.53-42.33L192.61-46.67Q192.61-49.47 192.35-51.34L192.35-51.34Q191.00-51.00 190.40-51.00L190.40-51.00Q188.36-51.00 188.36-53.04L188.36-53.04Q188.36-54.06 189.63-54.83Q190.91-55.59 192.86-55.93L192.86-55.93Q196.26-56.61 198.90-56.61L198.90-56.61Q199.92-56.61 200.64-55.89Q201.37-55.17 201.37-54.23L201.37-54.23Q201.37-53.30 200.81-52.62Q200.26-51.94 199.41-51.94L199.41-51.94Q198.90-51.94 198.56-52.02L198.56-52.02L197.88-52.02Q197.03-52.02 196.65-51.64Q196.26-51.26 196.26-50.24L196.26-50.24Q196.26-41.99 197.28-25.42L197.28-25.42Q197.45-22.36 197.97-16.41L197.97-16.41Q198.39-12.50 198.39-8.42L198.39-8.42L198.39-5.19Q198.90-5.27 200.09-5.27L200.09-5.27Q203.66-5.27 203.66-2.30L203.66-2.30L203.66-1.79L201.53-0.34Q201.45-0.34 200.98-0.30Q200.51-0.26 199.24-0.26L199.24-0.26Q196.52-0.09 195.75-0.09L195.75-0.09ZM222.11 1.19Q220.24 1.19 218.15 0.64Q216.07 0.09 214.97-0.60L214.97-0.60Q209.27-4.25 209.27-20.57L209.27-20.57L209.27-22.87L209.27-25.50L209.27-27.54Q209.27-30.94 209.35-33.62Q209.44-36.30 209.69-39.44L209.69-39.44Q209.95-42.76 210.46-44.84Q210.97-46.92 212.16-49.56L212.16-49.56Q213.18-52.02 214.67-53.38Q216.16-54.74 218.53-55.68L218.53-55.68Q220.66-56.61 223.81-56.61L223.81-56.61Q225.08-56.61 225.76-56.02Q226.44-55.42 226.44-54.49L226.44-54.49Q226.44-53.64 225.89-52.96Q225.34-52.28 224.57-52.19L224.57-52.19L220.57-52.19Q218.88-52.19 217.60-50.07Q216.32-47.94 215.81-44.54L215.81-44.54Q214.71-38.25 214.71-34.34L214.71-34.34L214.71-33.91L214.54-25.76Q214.37-22.10 214.37-17.51L214.37-17.51Q214.37-14.28 214.63-12.24L214.63-12.24Q215.05-9.18 216.07-7.14L216.07-7.14Q217.09-4.85 219.56-3.83L219.56-3.83Q220.83-3.32 222.36-3.32L222.36-3.32Q223.30-3.32 224.23-4.00L224.23-4.00Q225.34-4.00 226.06-3.53Q226.78-3.06 226.78-2.13L226.78-2.13Q226.78 1.19 222.11 1.19L222.11 1.19ZM249.39 0Q246.50 0 246.50-14.03L246.50-14.03L246.59-18.87L246.67-22.78L246.67-23.04L246.67-23.89Q246.75-24.57 246.75-25.50L246.75-25.50Q246.75-25.67 246.50-25.93L246.50-25.93Q246.25-26.18 246.25-26.35L246.25-26.35L246.25-26.44Q245.82-26.27 244.72-26.27L244.72-26.27Q243.61-26.27 242.00-26.61L242.00-26.61Q241.49-26.69 239.28-27.03L239.28-27.03L239.28-17.26Q239.28-15.05 239.53-10.29L239.53-10.29Q239.78-5.61 239.78-3.32L239.78-3.32Q239.78-2.04 239.11-1.10Q238.43-0.17 237.32-0.17L237.32-0.17Q235.71-0.17 235.03-3.32L235.03-3.32Q234.34-6.55 234.34-11.73L234.34-11.73L234.52-18.62Q234.60-21.51 234.60-24.74L234.60-24.74L234.60-26.18L234.60-27.37Q234.60-28.73 234.52-29.16L234.52-29.16L234.52-29.58L234.77-34.51Q234.77-37.74 234.52-44.12L234.52-44.12Q234.26-50.49 234.26-53.72L234.26-53.72Q234.26-54.74 234.94-55.51Q235.62-56.27 236.64-56.27L236.64-56.27Q239.36-56.27 239.36-51.17L239.36-51.17L239.19-40.63Q239.02-35.87 239.02-30.01L239.02-30.01Q240.30-29.58 243.61-29.58L243.61-29.58L246.75-29.58Q246.93-30.09 246.93-30.60L246.93-30.60Q246.93-34.68 246.42-42.67L246.42-42.67Q245.82-50.15 245.82-54.83L245.82-54.83Q245.82-55.76 246.54-56.40Q247.27-57.04 248.28-57.04L248.28-57.04Q248.88-57.04 249.99-56.61L249.99-56.61L250.75-56.27Q250.75-44.20 251.60-24.06L251.60-24.06L252.37-2.55Q252.37-1.36 251.47-0.68Q250.58 0 249.39 0L249.39 0ZM280.93 0.43Q279.99 0.43 279.44-0.38Q278.88-1.19 278.88-2.38L278.88-2.38L279.06-16.66Q279.31-27.03 279.31-32.73L279.31-32.73Q279.31-52.53 277.10-63.07L277.10-63.07Q278.38-65.03 280.33-65.03L280.33-65.03Q283.48-65.03 286.07-63.62Q288.66-62.22 290.36-59.84L290.36-59.84Q293.68-54.91 293.68-48.79L293.68-48.79Q293.68-42.42 290.95-37.40Q288.24-32.39 283.05-29.58L283.05-29.58L283.22-21.00L283.39-16.49Q283.48-15.05 283.48-12.33L283.48-12.33Q283.73-6.63 283.73-3.06L283.73-3.06Q283.73-1.45 283.05-0.51Q282.37 0.43 280.93 0.43L280.93 0.43ZM282.88-33.66Q286.19-36.80 287.77-40.25Q289.34-43.69 289.34-48.03L289.34-48.03L289.34-48.11Q289.34-50.07 288.92-53.04L288.92-53.04Q288.66-54.06 287.98-55.08Q287.30-56.10 287.22-56.27L287.22-56.27Q286.62-57.12 284.07-58.91L284.07-58.91L281.86-60.52Q281.86-56.19 282.37-47.09L282.37-47.09L282.88-33.66ZM307.87-0.09Q300.56-0.09 300.56-2.64L300.56-2.64Q300.56-4.68 303.11-4.68L303.11-4.68L304.13-4.68Q304.47-4.59 304.90-4.59L304.90-4.59Q305.58-4.59 305.87-5.02Q306.17-5.44 306.17-6.55L306.17-6.55Q306.17-13.77 305.32-26.27L305.32-26.27Q304.56-39.27 304.56-45.90L304.56-45.90Q304.56-48.28 304.64-50.24L304.64-50.24L304.73-54.57Q304.73-57.38 304.47-59.25L304.47-59.25Q303.54-58.91 302.52-58.91L302.52-58.91Q300.56-58.91 300.56-60.95L300.56-60.95Q300.56-61.97 301.79-62.73Q303.03-63.50 304.98-63.84L304.98-63.84Q308.55-64.43 311.02-64.43L311.02-64.43Q312.04-64.43 312.76-63.75Q313.48-63.07 313.48-62.14L313.48-62.14Q313.48-61.20 312.93-60.52Q312.38-59.84 311.53-59.84L311.53-59.84Q311.02-59.84 310.68-59.93L310.68-59.93L310.00-59.93Q309.15-59.93 308.76-59.54Q308.38-59.16 308.38-58.14L308.38-58.14Q308.38-49.13 309.49-33.32L309.49-33.32Q310.50-16.75 310.50-8.42L310.50-8.42L310.50-5.19Q311.10-5.27 312.21-5.27L312.21-5.27Q315.78-5.27 315.78-2.30L315.78-2.30L315.78-1.79L313.65-0.34Q313.56-0.34 313.14-0.30Q312.72-0.26 311.44-0.26L311.44-0.26Q308.55-0.09 307.87-0.09L307.87-0.09ZM323.77 0.77Q322.24 0.77 321.30-1.28L321.30-1.28Q323.17-4.17 325.59-16.70Q328.02-29.24 329.72-42.67L329.72-42.67Q331.42-55.85 331.59-60.18L331.59-60.18L328.53-59.93Q327.93-59.84 326.74-59.84L326.74-59.84Q322.15-59.84 322.15-62.48L322.15-62.48L322.15-62.90L323.26-64.26L323.26-64.34Q324.28-64.01 325.72-64.01L325.72-64.01Q327.08-64.01 329.72-64.52L329.72-64.52Q332.69-64.94 333.71-64.94L333.71-64.94Q334.73-64.94 335.37-64.22Q336.01-63.50 336.01-62.48L336.01-62.48Q336.01-40.12 326.57-3.57L326.57-3.57L328.44-3.66Q329.55-3.83 331.08-3.83L331.08-3.83Q335.58-3.83 335.58-1.28L335.58-1.28L335.58-0.85L334.22 0.43L329.04 0.60Q326.66 0.77 323.77 0.77L323.77 0.77ZM345.95 0.77Q344.42 0.77 343.49-1.28L343.49-1.28Q345.36-4.17 347.78-16.70Q350.20-29.24 351.90-42.67L351.90-42.67Q353.60-55.85 353.77-60.18L353.77-60.18L350.71-59.93Q350.12-59.84 348.93-59.84L348.93-59.84Q344.34-59.84 344.34-62.48L344.34-62.48L344.34-62.90L345.44-64.26L345.44-64.34Q346.46-64.01 347.91-64.01L347.91-64.01Q349.27-64.01 351.90-64.52L351.90-64.52Q354.88-64.94 355.90-64.94L355.90-64.94Q356.92-64.94 357.55-64.22Q358.19-63.50 358.19-62.48L358.19-62.48Q358.19-40.12 348.76-3.57L348.76-3.57L350.63-3.66Q351.73-3.83 353.26-3.83L353.26-3.83Q357.77-3.83 357.77-1.28L357.77-1.28L357.77-0.85L356.41 0.43L351.22 0.60Q348.84 0.77 345.95 0.77L345.95 0.77ZM385.56 0Q384.20 0 383.56-0.51Q382.93-1.02 382.93-2.21L382.93-2.21L382.93-13.35Q381.82-14.11 378.76-14.71Q375.70-15.30 372.98-15.47L372.98-15.47Q372.05-13.69 371.62-11.14L371.62-11.14L371.28-9.44Q371.20-8.84 370.77-6.80Q370.35-4.76 369.84-3.27Q369.33-1.79 368.82-0.94L368.82-0.94Q365.59-0.94 365.08-2.64L365.08-2.64Q366.01-4.00 367.20-10.63L367.20-10.63L370.01-26.18Q371.88-37.23 373.45-45.05Q375.02-52.87 376.81-58.14L376.81-58.14Q378.76-64.01 380.55-64.01L380.55-64.01Q382.33-64.01 383.27-63.33L383.27-63.33Q383.27-59.93 384.88-46.92L384.88-46.92Q386.58-34.17 386.58-29.50L386.58-29.50Q386.58-24.99 387.52-16.58L387.52-16.58Q388.37-7.99 388.37-2.89L388.37-2.89Q388.37 0 385.56 0L385.56 0ZM381.14-18.28Q381.82-18.28 382.84-18.53L382.84-18.53Q382.59-22.27 381.99-27.80L381.99-27.80Q380.04-47.01 380.04-51.34L380.04-51.34L380.04-52.02Q379.19-51.17 377.70-44.33Q376.21-37.48 374.94-29.67Q373.66-21.85 373.58-19.30L373.58-19.30Q377.15-18.28 381.14-18.28L381.14-18.28Z" fill="#000000" fontsize="85" transform="matrix(1,0,0,1,75.23,428.47499999999997)"></path></svg>